<svg xmlns="http://www.w3.org/2000/svg" viewBox="0 0 3460.07 866.4">
  <g id="Camada_2" data-name="Camada 2">
    <g id="Camada_1-2" data-name="Camada 1">
      <g>
        <g>
          <path d="M1342.68,212.49c81.77-.34,130.59,59.77,130.29,125.35-.34,75.29-58.83,128.88-137.22,127.25-74.44-1.56-125.32-56.7-123.72-134.08C1213.42,264,1271.87,211,1342.68,212.49ZM1257.14,336c-1.17,49.55,35.43,89,83.33,89.85,47.52.82,85.25-36.78,86.13-85.85.86-48.29-35.48-87.34-82.2-88.32C1295.84,250.69,1258.3,287,1257.14,336Z" fill="#0a0f33"/>
          <path d="M3254.44,338.31c0-37.64.2-75.28-.16-112.92-.08-7.45,1.28-10.07,9.54-10,36.79.5,73.59-.25,110.38.25,43.09.58,74.16,25.13,82.71,64.29,8.38,38.39-9.26,76.41-44.41,92.74-8.84,4.1-4.22,7.13-1.69,11,15,22.92,30.25,45.72,45.28,68.64,1.73,2.64,2.68,5.79,4,8.7-3.19.4-6.42.62-9.58,1.22-28.27,5.36-47.8-4.14-59.75-31.42-6.18-14.08-16.21-26.62-25.51-39.09a21.23,21.23,0,0,0-13.86-7.61c-14.31-1-28.75.05-43.11-.45-7.61-.26-10.38,1.94-10.2,9.92.45,19.86-.26,39.76.1,59.63.13,7-1.76,9.7-9.09,9.14a148,148,0,0,0-25.35,0c-8.25.81-9.65-2.37-9.58-9.87.38-38.07.18-76.13.18-114.2Zm43.64-38.17h-.1c0,12.25-.29,24.51.23,36.73.12,2.76,3.14,7.74,4.77,7.72,26.13-.34,52.46.35,78.33-2.69,20.19-2.37,33.41-22.32,33.28-43.38-.14-22-12.5-39.49-34.25-41.87-25.46-2.79-51.33-1.95-77-2.09-1.73,0-4.88,4.87-5,7.58C3297.78,274.79,3298.08,287.47,3298.08,300.14Z" fill="#0a0f33"/>
          <path d="M3065.75,465.08C2991.5,465,2937.2,411.38,2937.12,338c-.09-71.18,55.2-125.23,128-125.14,76.78.1,132.92,53.53,132.48,126.09C3197.16,411,3140.6,465.12,3065.75,465.08ZM3151,337.71c-.06-49.09-36.23-86.28-83.85-86.23-48.9.06-84.28,36.61-84.29,87.07,0,49.56,36.86,87.65,84.53,87.34S3151.05,387.7,3151,337.71Z" fill="#090f33"/>
          <path d="M1755,225.27c-.1-7.83,1.79-9.78,9.63-9.75,54.59.26,109.18,0,163.77-.27,6.56,0,10,.42,8.71,8.62-1.57,9.74,2,23.1-3.26,28.62-4.69,4.93-18.35,1.4-28,1.43-32.17.1-64.33.33-96.49,0-7.8-.07-11.19,1.28-10.58,10.29a383.22,383.22,0,0,1,.11,43.14c-.34,7.95,2.22,10,10,9.93,34.28-.47,68.56,0,102.83-.58,8.61-.14,11.61,1.79,11.54,11-.22,28.42.19,28.38-27.8,28.72-28.78.36-57.55,1.18-86.32,1-8.59-.05-10.57,2.71-10.23,10.75a413.75,413.75,0,0,1-.1,44.41c-.57,8.83,2.39,10.54,10.42,10.45,40.62-.47,81.25-.08,121.87-.82,9.16-.16,11.12,2.29,11,11-.51,28.83-.15,28.84-28.63,28.85-49.51,0-99-.21-148.53.26-8.9.08-11.21-2.2-11.08-11.14C1754.28,413.59,1755.43,262.93,1755,225.27Z" fill="#080e33"/>
          <path d="M1611.31,465.29h-.09c-38.58-.95-69.37-11.6-96.39-33.22-4.87-3.9-6.29-6.49-2-11.83a125.5,125.5,0,0,0,13.21-20.35c3.84-7.28,6.49-7.18,12.73-1.62,24.66,22,53.77,30.85,86.6,26,16.91-2.52,27.14-11.56,28.78-24.11,2-15-4.46-26.1-21.91-32.73-18.06-6.86-37-11.31-55.33-17.57-22.83-7.81-43.81-18.33-52.45-43.45-14.73-42.83,11.65-85.9,57.66-92.81,37.13-5.57,80.28,6.17,113.21,24.1,0,0-18.87,34.38-18.34,34.39.19,0-.36.08-.53,0-2.15-1-17.42-8.31-26.16-10.66-16.11-4.33-32.59-8.31-49.14-9.65-17.47-1.42-31.17,9.56-33.32,23.07-2.45,15.38,4.6,25.64,23.77,32.19,17.11,5.85,34.92,9.74,51.88,16,23.25,8.51,45.44,18.89,53.9,45.47,13.59,42.72-13.13,84.76-60.08,93.65C1627.44,463.94,1617.32,464.58,1611.31,465.29Z" fill="#080e32"/>
          <path d="M2592.71,465.24c-67.13,0-121.49-46.49-128-109.42-7.22-70.13,35.66-129.52,104.91-141.6,42.28-7.37,82.42.19,116.7,28.73,5.8,4.82,7.57,8.33,1.14,14.52-7.26,7-12.06,20-19.93,21.82-6.43,1.52-15.5-10.05-23.93-14.87-46.61-26.66-103.45-10-125.31,36.38s-.07,102.13,47.76,118.92c33.74,11.85,65,4.49,92.5-17.67,6.77-5.46,10.56-6.35,15.23,1.5,2.12,3.57,5.45,6.44,8.39,9.49,11,11.42,11,11.39-1.8,21.78C2654.84,455.55,2625.68,465.88,2592.71,465.24Z" fill="#090e32"/>
          <path d="M2096.73,215.87c23.18,0,23.2,0,32,21.6q32.05,78.87,64.11,157.75c1.08,2.67,2.52,5.2,3.8,7.8a84.12,84.12,0,0,0,4-7.59q34.86-86.54,69.69-173.07c1-2.41,3.14-6.09,4.89-6.16,13.09-.55,26.21-.36,39.31,0,.1,0,1,6.15-.11,8.77-12.4,30.38-25.19,60.59-37.72,90.91-18.78,45.46-37.56,90.91-56,136.5-2.88,7.12-6.25,10.82-14.61,10.06-10.9-1-24.25,3.13-32.21-1.86-7.25-4.55-8.76-18.3-12.73-28-27.91-68.47-55.53-137-84-205.29-4.57-11-1.81-12.66,8.2-11.47C2089.07,216.24,2092.93,215.87,2096.73,215.87Z" fill="#080e31"/>
          <path d="M1158.22,305.8c0,26.64.73,53.3-.15,79.91-1.91,58.43-50.66,93.07-106.09,74-16.07-5.53-29.92-17.83-44.24-27.82-1.94-1.36-2.24-8.43-.53-11,5.1-7.69,10.43-17.68,18-20.39,4.56-1.64,12.87,9.67,20.42,13.14,10.06,4.62,20.85,9.48,31.63,10.29,18.53,1.39,34.71-12.13,35.36-30.71,1.55-44.34,1.2-88.75,1-133.13,0-2.07-5.86-5.84-9-5.9q-36.13-.69-72.3,0c-7.19.14-9.65-1.83-9-9.1.9-9.48-2.56-22,2.3-27.68,4-4.71,17.41-1.61,26.65-1.64,31.72-.11,63.44.23,95.15-.29,8.28-.14,10.73,1.92,10.55,10.38-.57,26.63-.21,53.28-.21,79.92Z" fill="#090e32"/>
          <path d="M2838,357.74c0,31.33-.26,62.65.18,94,.12,8.17-1.92,11.62-10.49,10.62-5.85-.67-11.84-.17-17.76-.17-17.15,0-17.11,0-17.12-17.81-.05-59.26-.44-118.52.09-177.78.1-11-3.42-13.34-13.57-12.87-18.58.87-37.24.07-55.85.61-7.1.2-9.31-1.7-9.45-9.07-.55-29.65-.83-29.59,28.8-29.57,53.76,0,107.52.16,161.27-.2,8.58-.06,12.36.5,11.65,11.15-1.84,27.23-1.13,27.28-28.16,27.28-12.69,0-25.46.8-38.07-.26-10.62-.9-12.19,3.32-12,12.68.58,30.47.22,60.95.22,91.42Z" fill="#090f32"/>
          <path d="M2362.72,338.24c0-37.66.26-75.32-.21-113-.11-8,2.09-10.27,9.85-9.63,10.83.89,25.86-3.35,31.46,2.25s2.09,20.6,2.09,31.48c0,66.85-.26,133.7.07,200.56.05,9.78-2.41,13.62-12.59,12.45-9.95-1.14-23.91,2.84-29-2.37s-1.72-19.05-1.75-29.11c-.09-30.89,0-61.77,0-92.66Z" fill="#070e32"/>
          <path d="M1844.8,193.73l-19.74-1.59c3.64-5.43,17.23-26.28,20.12-31.43,9.31-16.57,9.25-16.57,27.71-10.55,8,2.61,16,5.11,24,7.68,4.59,1.47,8,2.74,1.57,7.18A161.13,161.13,0,0,0,1878.81,181C1869.17,190.18,1858.77,196.34,1844.8,193.73Z" fill="#080d2f"/>
        </g>
        <g>
          <path d="M400.23,243.4c-25.06,23.93-50.19,47.79-75.1,71.89-2.7,2.61-4.19,1.23-6.23,0q-70.11-43.33-140.17-86.74c-2.65-1.64-4.55-2.26-7.36-.09-3.25,2.5-7.07,4.29-10.71,6.26-1.9,1-2.74,1.41-.15,3,15.39,9.19,30.64,18.6,46,27.91,34,20.67,68,41.46,102.23,61.84,5.13,3,6.65,6.22,6.63,12-.21,56.66,0,113.33-.1,170a6.85,6.85,0,0,1-2.69,5q-71.84,43.86-143.91,87.32a7,7,0,0,1-6,0Q87.1,556.63,11.77,511.28C9.19,509.73,8.18,508.1,8.2,505q.23-32.75,0-65.49a9.41,9.41,0,0,0-1.89-5.7,24.87,24.87,0,0,1-.87-32.05,12.32,12.32,0,0,0,2.55-7c.18-20.83.09-41.67.06-62.5,0-4.9-1-10,.06-14.67,3-12.42,16.36-17.64,27.61-11.57a6.69,6.69,0,0,0,5.62,0q30.15-18.45,60-37.38a7.08,7.08,0,0,0,2.59-5.12q.3-18.24-.06-36.5c-.07-3.26,1-5,3.69-6.71q109.65-68,219.18-136.25C371,56.43,414.93,28.34,459.12.61a6.9,6.9,0,0,1,6,.18q69.7,43.58,139.21,87.49,74.11,46.91,148,94.12c1.5,1,2.87,2.15,4.29,3.23a45.72,45.72,0,0,1-5.57.66q-143.74.08-287.49,0a10.76,10.76,0,0,0-8.28,3.42c-14.5,14.25-29.19,28.3-43.78,42.46a17.72,17.72,0,0,0-2.08,3c1.12.09,2.24.25,3.36.25,14.34,0,28.67-.11,43,0,3.19,0,4.48-.77,4.24-4.16-.29-4,.17-8-.14-12-.28-3.73.61-5,4.73-4.95,43.17.29,86.33.33,129.5.41,5.16,0,10.34.1,15.49-.27,3-.21,3.69.79,3.54,3.54a76,76,0,0,0,0,11c.32,3.5-.76,4.42-4.3,4.4-26.5-.17-53-.1-79.5-.1H523c-6.51,0-6.28,0-6.59,6.3-.18,3.78,1,4.74,4.74,4.72,28.83-.18,57.66,0,86.49-.24,4.39,0,6.29.79,5.65,5.54-.59,4.37,1,10.27-1.28,12.8-2,2.18-8.14.62-12.45.63-44.83.09-89.66.1-134.49.35-4.2,0-5.37-1-5.1-5.14.33-4.95,1.73-12-.82-14.36-2.94-2.68-9.7-1.36-14.8-1.43-13.32-.21-26.65-.23-40-.32a22.54,22.54,0,0,1,1-2.17c.74-1.24,1.55-2.44,2.34-3.65-1.43-.06-2.86-.16-4.29-.16q-34.74,0-69.49,0c-2.27,0-4.09.08-4.71-3-1.89-9.4-8.08-15-16.91-17.94-2.4-.79-3.38-1.77-3.37-4.46.08-21-.13-42,0-63,0-9.42,5.45-15,14.88-15.11,28.5-.22,57-.11,85.49-.23,2.83,0,3.78.89,3.74,3.71-.14,7.83.19,15.68-.1,23.5-.15,3.86.83,5,4.86,5,46.66-.17,93.32-.12,140-.18,4.27,0,10.19,1.24,12.36-1s.48-8.17,1-12.42c.5-4.44-1.41-5.08-5.34-5.06-31.83.15-63.66.07-95.49.08-11.33,0-22.67-.14-34,.14-4,.1-4.32-1.76-4.07-4.81.3-3.82,3.21-2.22,4.93-2.23,40.33-.1,80.65-.06,121-.09,13,0,12.78,0,13.07-12.88.1-4.28-1.2-5.15-5.27-5.12-36,.19-72,.16-108,.18-7.5,0-15-.1-22.49,0-2.57,0-3.31-.7-3.51-3.33-.31-4.14,2.2-3.59,4.72-3.59,43.16,0,86.32-.15,129.48-.07,3.81,0,5.48-.76,5-4.87a47.77,47.77,0,0,1,0-9.49c.29-3.32-.54-4.58-4.24-4.57q-74.75.21-149.48,0c-4,0-4.69,1.33-4.57,4.86.24,7-.2,14,.14,21,.2,4.12-1.27,4.94-5.11,4.92q-41.49-.21-83,0c-14.83.05-22.93,8.07-23,22.83-.07,19.66-.05,39.33.2,59,.05,4.28-.65,6.62-5.3,8.22-11.09,3.82-17.23,15.07-15.53,26.68,1.55,10.54,11.14,19.68,21.57,20.56,11.95,1,22.81-6,26.11-17.25.91-3.11,2.35-3.72,5.23-3.71,20.83.06,41.66,0,62.49,0A15.57,15.57,0,0,1,400.23,243.4Zm-93,178.67h-.12q0-20.25,0-40.5c0-13.66-.05-27.33.19-41,0-3.12-1-4.84-3.56-6.3-4.78-2.69-9.4-5.67-14.09-8.53-20.47-12.44-41-24.84-61.39-37.38-3.2-2-3.87-1.48-3.85,2.21,0,8.63-4.37,14.67-11.59,19.09a5.57,5.57,0,0,0-2,4.53c1.67,12.71,3.7,25.38,5.47,38.08.43,3.08,1.26,4.72,4.86,5.44,9,1.81,14.51,9.54,14.16,18.57a18.86,18.86,0,0,1-16.48,17.95,18.44,18.44,0,0,1-19.42-11.78c-3.15-8.45,0-18.2,7.71-22.65,2.62-1.5,3.35-2.91,2.9-5.78-2-12.66-4-25.33-5.52-38-.39-3.27-1.79-3.8-4.42-4.52-3.12-.86-5.93-2.77-9-3.9-1.56-.57-3.81-1.19-5-.5-9.58,5.37-18.95,11.1-28.46,16.61-2.16,1.25-3,2.47-2.3,5.14,2.58,10.56-.23,19.6-9,26.15s-18,6.51-27.11,1c-2.51-1.52-3.94-1.22-6.05.4-5.54,4.25-11.16,8.43-17,12.33-3.24,2.19-3.32,3.48-.2,6q21.18,17.11,42,34.69c2.62,2.19,4.5,2.59,7.71.71a28,28,0,0,1,35.61,6.8c8.24,10.55,7.61,26.25-1.44,35.83a28.46,28.46,0,0,1-36.91,4c-11-7.56-14.73-22.1-8.5-34.63,1.45-2.93.81-4.18-1.4-6Q111,398,89.19,379.67c-2.6-2.19-4.42-2.47-7.22-.31-11.34,8.75-22.9,17.21-34.2,26-1,.78-1.35,3.37-.93,4.81,5,17.24-8.46,33.38-26.22,31-3.29-.44-4.24-.09-4.21,3.4.13,18.66-.06,37.33.16,56a7.53,7.53,0,0,0,3.25,5.31C66.2,534,112.73,561.91,159,590.16c4.79,2.93,8.09,2.53,12.46-.13,44.32-27,88.74-53.82,133-80.87,1.49-.9,2.58-3.68,2.59-5.59C307.28,476.4,307.22,449.24,307.22,422.07ZM107.64,336.41a66,66,0,0,1,.91-6.79c4.3-17.5,24.73-24.26,39.29-12.87,2.47,1.93,4,2.22,6.77.54,8.78-5.41,17.74-10.51,26.68-15.65,2.1-1.21,3-2.14,2-5-3.69-10.65.37-21,10.1-26.42,2.49-1.38,2.27-1.69,0-3-11.15-6.65-22.15-13.55-33.34-20.1a6.54,6.54,0,0,0-5.58-.15q-54,32.79-107.75,65.89c-1.79,1.1-2.61,2-2.15,4.65.65,3.79-.31,7.83-.31,11.77,0,1.52.28,3.65,1.28,4.47C58.1,344,70.77,354,83.31,364.17c2,1.66,3.61,1.63,5.67,0,5.66-4.37,11.34-8.76,17.26-12.77,3.42-2.31,4.63-4.59,2.73-8.55C108,340.87,108,338.38,107.64,336.41ZM16.23,367h0c0,8.16,0,16.31,0,24.47,0,2,.11,2.89,2.66,2.28,7-1.67,13.42.12,19.46,4a5.47,5.47,0,0,0,4.95.08c11.09-7.93,22-16.16,33-24.19,2.44-1.78,2.37-2.82,0-4.69-12-9.56-23.75-19.31-35.72-28.84a4.47,4.47,0,0,0-4.11-.29c-5.7,3.53-11.53,4.21-17.57,1.35-2.5-1.19-2.68-.29-2.66,1.87C16.28,351.05,16.23,359,16.23,367ZM178,434.4c.1-10.56-8.35-19.4-18.66-19.52a19.07,19.07,0,1,0-.32,38.13A19,19,0,0,0,178,434.4Zm307-204.25a8.8,8.8,0,0,0-8.86,8.79,9,9,0,0,0,9.22,9.05,8.85,8.85,0,0,0,8.82-8.88A8.76,8.76,0,0,0,485.06,230.15Z" fill="#081035"/>
          <path d="M463,693.17c10.09-11.84,20.06-23.78,30.32-35.48q23.58-26.91,47.52-53.53c12.11-13.43,24.53-26.58,36.81-39.86.57-.61,1.2-1.16,1.76-1.78,5.71-6.25,6-6.38,9.53,1.57,10.22,23,20.19,46.13,30.26,69.2,6,13.82,12,27.66,18.09,41.44,1.86,4.19,7.15,5,14,4.63,10.54-.63,21.15-.18,31.72-.16,8.5,0,17,.12,25.49.16,5.33,0,10.69.29,16-.15,1.85-.16,4.48-1.69,5.19-3.28,13.36-29.95,26.45-60,39.66-90q20.94-47.53,42-95,3.72-8.42,7.43-16.82c.26-.57.56-1.11.84-1.67a5.15,5.15,0,0,1,.56,1.51c0,8.79-.1,17.58.06,26.36.14,7.29.84,14.57.88,21.86.13,19.83.17,39.66,0,59.49-.11,13.61-.73,27.23-.88,40.85-.06,5.11.78,10.24.79,15.36a5.9,5.9,0,0,1-2.36,4.24q-58.26,37-116.65,73.81-54,34.05-108,68-58,36.51-116,73c-4.62,2.91-9.46,5.5-13.92,8.63-2.09,1.46-3.36,1-5.15-.17Q413.05,836.12,367.13,807q-61-38.62-122.18-77.13-54-34-108-68c-9.66-6.08-19.43-12-29-18.17a6.22,6.22,0,0,1-2.71-4.13c-.53-13.11-.69-26.23-1.18-39.34-.13-3.74,1.07-3.26,3.41-1.77,13.94,8.92,28,17.68,41.85,26.73,3.52,2.3,6.26,2.58,9.92.21,11.94-7.74,24.12-15.11,36.16-22.72,3-1.92,4.42-1.09,6,2,14.16,28.6,28.49,57.11,42.77,85.65.6,1.19,1.3,2.33,1.81,3.56,1.82,4.36,4.06,5,8.13,2,7.65-5.56,16.13-5.21,23.86-.49C285.26,700,289.06,707,288.17,716c-.36,3.63-.72,7.16,4.92,6.6,2.41-.24,4.9.71,7.36.72q70.23,0,140.47-.05c0,10.16.29,20.33,0,30.48-.13,4.36,1,5.61,5.49,5.59,43.15-.18,86.31-.1,129.46-.1,12.26,0,12,0,12.37-12.12.16-5.1-1.63-5.92-6.21-5.9-39.15.18-78.31.12-117.46.12-1.16,0-2.48.34-3.46-.08s-2.69-1.79-2.57-2.48a5.41,5.41,0,0,1,2.45-3.4c1-.58,2.59-.15,3.93-.15q55.23,0,110.46-.06c12.9,0,12.76,0,12.81-13.17,0-3.71-1-4.83-4.76-4.79-18.82.2-37.65.12-56.47.13-21.5,0-43-.07-64.48.08-3.62,0-5.26-1.3-4-4.53.42-1.06,3.24-1.63,5-1.63q56.47-.16,113-.12c11.6,0,11.33,0,11.76-11.67.18-5-1.14-6.37-6.26-6.34C542.29,693.33,502.64,693.2,463,693.17ZM282.18,713.69c0-9.19-6.16-15.42-15.22-15.43-9.35,0-15.89,6.08-15.85,14.79,0,9,7.72,17.25,16,17.22S282.19,722.76,282.18,713.69Z" fill="#bfc0c0"/>
          <path d="M498.81,425.3c0,33.66.35,67.33-.12,101-.37,26.88-3.77,53.33-15.44,78.1-18.52,39.33-49.84,61.75-92.13,68.92-33.34,5.66-65.93,2.47-96.91-12-22.65-10.56-39.1-27.69-51.53-49.07-1.79-3.1.66-3.42,2.09-4.31q22.16-13.92,44.38-27.71c4.23-2.64,8.52-5.19,12.59-8.06,2.34-1.65,3.59-1.89,5.17,1,18.07,33,67.62,35.68,92.36,15.9C411,579.69,416.5,566.92,419,552.7a142.48,142.48,0,0,0,1.95-23.34c.18-50.83.05-101.66.22-152.5,0-4.16-1.39-4.81-5.07-4.77-21.83.2-43.66.08-65.49.32-4.2,0-4.23-.92-2.56-4.25,10.43-20.72,20.63-41.56,31.14-62.24.68-1.32,3.32-2.33,5.05-2.34q51-.25,102-.19c4.11,0,9.45-1.13,11.93,1,2,1.71.69,7.47.7,11.43q0,54.75,0,109.5Z" fill="#091137"/>
          <path d="M556.45,303.39c12,0,24,.06,36,0,2.42,0,3.7.45,4.74,3Q636,403,675,499.56c15.87,39.52,31.46,79.14,47.13,118.73.45,1.14.9,2.68.49,3.69-2.21,5.54-4.59,11-7.18,16.39a4.39,4.39,0,0,1-3.32,1.92c-18,.12-36,.17-54-.08-1.41,0-3.44-2-4.09-3.59q-19.11-45.84-37.93-91.82Q567.62,427,519.19,309.15a17.36,17.36,0,0,0-.76-1.84c-1.62-2.9-1.34-4.08,2.52-4C532.78,303.54,544.62,303.39,556.45,303.39Z" fill="#091137"/>
          <path d="M815.07,303.91c11.33,0,22.66.17,34-.09,4-.09,4.3.84,2.84,4.29q-34.15,80.53-68.11,161.17-24.21,57.5-48.2,115.08a27.77,27.77,0,0,1-2,3.37c-.52-1.16-1.1-2.3-1.58-3.48-11.54-28.37-23.12-56.72-34.5-85.15a9.31,9.31,0,0,1,.32-6.38q31.67-75.87,63.55-151.65c4.74-11.3,9.5-22.6,14-34,1.07-2.71,2.48-3.28,5.16-3.25,11.49.15,23,.07,34.49.07Z" fill="#091136"/>
          <path d="M400.23,243.4a15.57,15.57,0,0,0-3.58-.87c-20.83,0-41.66.06-62.49,0-2.88,0-4.32.6-5.23,3.71-3.3,11.29-14.16,18.26-26.11,17.25-10.43-.88-20-10-21.57-20.56-1.7-11.61,4.44-22.86,15.53-26.68,4.65-1.6,5.35-3.94,5.3-8.22-.25-19.66-.27-39.33-.2-59,.06-14.76,8.16-22.78,23-22.83q41.49-.12,83,0c3.84,0,5.31-.8,5.11-4.92-.34-7,.1-14-.14-21-.12-3.53.58-4.87,4.57-4.86q74.73.19,149.48,0c3.7,0,4.53,1.25,4.24,4.57a47.77,47.77,0,0,0,0,9.49c.46,4.11-1.21,4.87-5,4.87-43.16-.08-86.32,0-129.48.07-2.52,0-5-.55-4.72,3.59.2,2.63.94,3.38,3.51,3.33,7.49-.14,15,0,22.49,0,36,0,72,0,108-.18,4.07,0,5.37.84,5.27,5.12-.29,12.83-.09,12.87-13.07,12.88-40.33,0-80.65,0-121,.09-1.72,0-4.63-1.59-4.93,2.23-.25,3,.07,4.91,4.07,4.81,11.32-.28,22.66-.14,34-.14,31.83,0,63.66.07,95.49-.08,3.93,0,5.84.62,5.34,5.06-.48,4.25,1.25,10.14-1,12.42s-8.09,1-12.36,1c-46.67.06-93.33,0-140,.18-4,0-5-1.13-4.86-5,.29-7.82,0-15.67.1-23.5,0-2.82-.91-3.72-3.74-3.71-28.5.12-57,0-85.49.23-9.43.07-14.84,5.69-14.88,15.11-.1,21,.11,42,0,63,0,2.69,1,3.67,3.37,4.46,8.83,2.9,15,8.54,16.91,17.94.62,3,2.44,3,4.71,3q34.74,0,69.49,0c1.43,0,2.86.1,4.29.16-.79,1.21-1.6,2.41-2.34,3.65a22.54,22.54,0,0,0-1,2.17ZM305.5,256.58a17.58,17.58,0,0,0,.32-35.15A18,18,0,0,0,288,239.24,17.18,17.18,0,0,0,305.5,256.58Z" fill="#bfbfc1"/>
          <path d="M463,693.17c39.65,0,79.3.16,119,0,5.12,0,6.44,1.31,6.26,6.34-.43,11.64-.16,11.66-11.76,11.67q-56.49,0-113,.12c-1.73,0-4.55.57-5,1.63-1.29,3.23.35,4.55,4,4.53,21.49-.15,43-.07,64.48-.08,18.82,0,37.65.07,56.47-.13,3.76,0,4.78,1.08,4.76,4.79-.05,13.13.09,13.16-12.81,13.17q-55.23,0-110.46.06c-1.34,0-2.92-.43-3.93.15a5.41,5.41,0,0,0-2.45,3.4c-.12.69,1.49,2,2.57,2.48s2.3.08,3.46.08c39.15,0,78.31.06,117.46-.12,4.58,0,6.37.8,6.21,5.9-.4,12.09-.11,12.12-12.37,12.12-43.15,0-86.31-.08-129.46.1-4.49,0-5.62-1.23-5.49-5.59.29-10.15,0-20.32,0-30.48.17-8.78.46-17.55.47-26.33,0-2.82.89-3.71,3.7-3.64C451.05,693.44,457,693.23,463,693.17Z" fill="#666767"/>
          <path d="M305.5,256.58A17.18,17.18,0,0,1,288,239.24a18,18,0,0,1,17.8-17.81,17.58,17.58,0,0,1-.32,35.15Z" fill="#081139"/>
          <path d="M254.3,444.77c.23-3.4-.93-4.86-3.87-6.32-12.5-6.21-14.59-22.34-4.18-31.07,5.75-4.82,12.27-5.92,19.12-2.91s11,8.66,11.23,16.33c.27,7.87-3.39,14.11-10.39,17.38-4,1.86-4.67,4.21-4.77,8Q261,462.87,260,479.57c-.22,3.68.3,5.68,4.34,7.29,10.21,4.06,15.58,14.09,14.64,25.39-.78,9.41-8,17.69-18,20.47a23.42,23.42,0,0,1-28.94-18.22c-.71-4-2.3-5.07-6.09-5.17-7.15-.19-14.29-.78-21.41-1.5-3.17-.32-4.49.62-5.74,3.67A23.64,23.64,0,0,1,155,493.92c3.58-9.13,12.16-14.68,22.37-14.45,9.88.22,18.9,6.27,21.52,15.64,1.35,4.82,3.63,6.06,8.2,6.13,7.31.11,14.61,1,21.93,1.26a4.88,4.88,0,0,0,3.82-2.35c3.05-8,8.72-12.92,17-14.54,3-.58,3.28-2,3.24-4.4C252.94,474.88,253.9,450.56,254.3,444.77Zm16.07,65.09c.09-9-6.63-16.19-15.32-16.32-8.34-.13-15.82,7.47-15.8,16,0,8.12,7,15.15,15.31,15.38A15.18,15.18,0,0,0,270.37,509.86Z" fill="#081035"/>
          <path d="M79,484.59c-1.24-13.47,11.11-25.86,25.78-26,13.76-.14,25.2,11.85,25.36,25.62.13,11.71-8.51,25.94-26.05,25.78C89.16,509.86,78.2,498.22,79,484.59Z" fill="#bebfbf"/>
        </g>
      </g>
      <g>
        <path d="M1370.47,515.18V658.29h-12.66V515.18Zm28.3,143.11h-33.86l.21-10.42h33.65q16.15,0,27.83-6.88a46.66,46.66,0,0,0,18.06-19.22q6.39-12.33,6.38-28.55V580a65.27,65.27,0,0,0-3.65-22.41,48.71,48.71,0,0,0-10.45-17.15,46.15,46.15,0,0,0-16.2-11,55.5,55.5,0,0,0-21-3.83h-35.4V515.18h35.4a70.45,70.45,0,0,1,25.73,4.57,58.36,58.36,0,0,1,20.32,13.17A59.26,59.26,0,0,1,1459,553.51a73,73,0,0,1,4.68,26.74v13A72.94,72.94,0,0,1,1459,620a58.33,58.33,0,0,1-13.33,20.55,59.35,59.35,0,0,1-20.53,13.17A72.27,72.27,0,0,1,1398.77,658.29Z"/>
        <path d="M1558.75,523.73l-51.87,134.56h-13.17l56.6-143.11h9.26Zm38,84v10.41h-79.65V607.77Zm9.16,50.52L1554,523.73l-.72-8.55h9.16l56.7,143.11Z"/>
        <path d="M1745.38,515.18V525.6H1630.22V515.18Zm-51.35,0V658.29h-12.56V515.18Z"/>
        <path d="M1826.53,523.73l-51.87,134.56h-13.17l56.6-143.11h9.26Zm38,84v10.41h-79.65V607.77Zm9.16,50.52L1821.8,523.73l-.72-8.55h9.15l56.71,143.11Z"/>
        <path d="M2004.68,515.18V658.29H1992V515.18Zm80,0V525.6h-83.77V515.18Zm-10,64.18v10.32h-73.79V579.36Zm10.49,68.51v10.42h-84.28V647.87Z"/>
        <path d="M2239.27,515.18V658.29h-12.76l-86-122.27V658.29h-12.76V515.18h12.76l86.23,122.17V515.18Z"/>
        <path d="M2401.41,590.17v51q-2.58,3.54-8.9,8T2375.58,657q-10.6,3.28-26.24,3.29a62.71,62.71,0,0,1-24.29-4.57A54.6,54.6,0,0,1,2306,642.51a59,59,0,0,1-12.45-20.69,78.93,78.93,0,0,1-4.37-27V577.5a82.45,82.45,0,0,1,4-26.59,57.33,57.33,0,0,1,11.63-20.3,50.44,50.44,0,0,1,18.37-12.92,62.28,62.28,0,0,1,24.13-4.47q16.77,0,28.14,5.5a44,44,0,0,1,17.81,15.09,50.55,50.55,0,0,1,8.07,21.67h-12.76a42.7,42.7,0,0,0-6-15.77,32.59,32.59,0,0,0-13.12-11.65q-8.6-4.42-22.17-4.42a46.28,46.28,0,0,0-19.35,3.83,39,39,0,0,0-14.25,10.91,48.4,48.4,0,0,0-8.8,17,75.81,75.81,0,0,0-3,22v17.49a71.79,71.79,0,0,0,3.34,22.61,50.64,50.64,0,0,0,9.62,17.4,42.45,42.45,0,0,0,15,11.15,47.38,47.38,0,0,0,19.45,3.88,79.52,79.52,0,0,0,19.45-2.06,50.27,50.27,0,0,0,12.91-5,29.9,29.9,0,0,0,7.05-5.36V600.59h-40.24V590.17Z"/>
        <path d="M2468.67,515.18V658.29H2456V515.18Z"/>
        <path d="M2636.78,515.18V658.29H2624L2538,536V658.29h-12.76V515.18H2538l86.24,122.17V515.18Z"/>
        <path d="M2703.42,515.18V658.29h-12.66V515.18Zm80,0V525.6h-83.77V515.18Zm-10,64.18v10.32h-73.78V579.36Zm10.5,68.51v10.42h-84.28V647.87Z"/>
        <path d="M2839.11,515.18V658.29h-12.66V515.18Zm80,0V525.6H2835.3V515.18Zm-10,64.18v10.32H2835.3V579.36Zm10.49,68.51v10.42H2835.3V647.87Z"/>
        <path d="M2961.84,515.18h48.67q15.64,0,27,4.82a38.48,38.48,0,0,1,17.6,14.2q6.23,9.39,6.23,23a38.3,38.3,0,0,1-4.43,18.38,39.73,39.73,0,0,1-12.29,13.81,47.18,47.18,0,0,1-18.17,7.61l-4.32,1.58h-52l-.2-10.32h43.42q11.73,0,19.56-4.38a29.68,29.68,0,0,0,11.78-11.45,30.68,30.68,0,0,0,4-15.23,31.64,31.64,0,0,0-4.37-16.86,28.21,28.21,0,0,0-12.92-11q-8.54-3.82-20.89-3.83H2974.6V658.29h-12.76Zm92.51,143.11-38.8-64,13.59-.19,38.69,62.9v1.28Z"/>
      </g>
    </g>
  </g>
</svg>
