<svg id="Camada_1" data-name="Camada 1" xmlns="http://www.w3.org/2000/svg" viewBox="0 0 1109.71 1245.14">
  <g>
    <path d="M498.18,277.47c-25.06,23.93-50.19,47.79-75.09,71.88-2.7,2.62-4.2,1.23-6.24,0Q346.76,306,276.69,262.59c-2.65-1.64-4.55-2.26-7.37-.09-3.25,2.5-7.06,4.28-10.7,6.25-1.91,1-2.75,1.42-.15,3,15.39,9.19,30.64,18.61,46,27.91,34,20.68,68,41.47,102.23,61.85,5.12,3,6.64,6.22,6.62,12-.2,56.66,0,113.32-.1,170a6.8,6.8,0,0,1-2.69,5q-71.83,43.85-143.91,87.32a7,7,0,0,1-6.05,0q-75.46-45.1-150.8-90.46c-2.59-1.55-3.59-3.17-3.57-6.26q.23-32.75,0-65.5a9.38,9.38,0,0,0-1.9-5.69,24.86,24.86,0,0,1-.86-32.05,12.34,12.34,0,0,0,2.54-7c.18-20.83.09-41.66.06-62.49,0-4.91-1-10,.06-14.67,3-12.43,16.37-17.64,27.61-11.57a6.69,6.69,0,0,0,5.62,0q30.16-18.45,60-37.37a7.07,7.07,0,0,0,2.6-5.13c.19-12.16.2-24.33-.06-36.49-.07-3.27,1-5,3.68-6.71q109.67-68,219.19-136.25C468.93,90.5,512.89,62.4,557.07,34.68a6.93,6.93,0,0,1,6,.17q69.72,43.59,139.22,87.49,74.11,46.91,148,94.13c1.51,1,2.87,2.15,4.3,3.23a46.12,46.12,0,0,1-5.58.66q-143.74.07-287.48,0a10.78,10.78,0,0,0-8.29,3.42c-14.5,14.24-29.19,28.3-43.78,42.45a17.76,17.76,0,0,0-2.07,3.05c1.12.08,2.24.24,3.36.24,14.33,0,28.66-.11,43,0,3.19,0,4.47-.77,4.23-4.15-.29-4,.17-8-.13-12-.29-3.72.61-5,4.73-4.95,43.16.29,86.33.33,129.49.42,5.17,0,10.35.1,15.49-.27,3-.22,3.69.79,3.54,3.54a74.65,74.65,0,0,0,.06,11c.32,3.49-.76,4.41-4.31,4.39-26.49-.16-53-.09-79.49-.1h-6.5c-6.52,0-6.29,0-6.59,6.31-.18,3.77,1,4.74,4.73,4.71,28.84-.17,57.67,0,86.5-.23,4.38,0,6.29.78,5.65,5.54-.59,4.37,1,10.27-1.28,12.79-2,2.19-8.14.63-12.45.64-44.83.09-89.67.09-134.5.34-4.19,0-5.37-1-5.09-5.14.32-4.94,1.73-12-.82-14.36-3-2.68-9.7-1.35-14.8-1.43-13.33-.2-26.66-.22-40-.32a21.3,21.3,0,0,1,1-2.17c.73-1.24,1.55-2.43,2.33-3.65-1.43,0-2.86-.15-4.28-.16q-34.75,0-69.49,0c-2.27,0-4.1.07-4.71-3-1.9-9.39-8.09-15-16.91-17.93-2.41-.79-3.38-1.77-3.37-4.46.07-21-.13-42,0-63,0-9.42,5.46-15,14.89-15.12,28.49-.21,57-.11,85.49-.23,2.82,0,3.78.89,3.73,3.72-.13,7.83.2,15.67-.1,23.49-.14,3.87.83,5,4.87,5,46.66-.18,93.32-.13,140-.19,4.28,0,10.2,1.24,12.36-1s.48-8.17,1-12.42c.5-4.44-1.41-5.08-5.35-5.07-31.83.16-63.66.08-95.48.08-11.34,0-22.67-.14-34,.14-4,.11-4.31-1.75-4.07-4.81.31-3.81,3.22-2.22,4.93-2.22q60.5-.15,121-.09c13,0,12.78-.06,13.07-12.88.09-4.29-1.21-5.15-5.28-5.13-36,.2-72,.16-108,.19-7.5,0-15-.1-22.5,0-2.56,0-3.31-.71-3.51-3.33-.31-4.14,2.21-3.6,4.73-3.6,43.16,0,86.32-.15,129.48-.07,3.8,0,5.48-.75,5-4.87a48.44,48.44,0,0,1,0-9.48c.28-3.32-.54-4.59-4.25-4.58q-74.73.23-149.48,0c-4,0-4.69,1.34-4.57,4.87.24,7-.2,14,.14,21,.2,4.12-1.27,4.94-5.1,4.92-27.66-.15-55.33-.11-83,0-14.82,0-22.93,8.07-23,22.83-.07,19.66,0,39.32.2,59,0,4.27-.65,6.61-5.3,8.22-11.09,3.82-17.23,15.06-15.53,26.67,1.54,10.54,11.13,19.69,21.57,20.57,12,1,22.8-6,26.11-17.25.91-3.11,2.35-3.73,5.22-3.72,20.83.07,41.67,0,62.5,0A15,15,0,0,1,498.18,277.47Zm-93,178.67h-.12q0-20.25,0-40.5c0-13.67-.06-27.33.18-41,.06-3.11-.95-4.83-3.55-6.29-4.78-2.7-9.4-5.68-14.09-8.53-20.47-12.45-41-24.85-61.39-37.38-3.2-2-3.88-1.49-3.86,2.21,0,8.63-4.36,14.66-11.59,19.09a5.59,5.59,0,0,0-2,4.53c1.67,12.71,3.7,25.37,5.48,38.07.43,3.08,1.25,4.72,4.86,5.45,9,1.81,14.5,9.54,14.15,18.57a18.87,18.87,0,0,1-16.48,17.95,18.46,18.46,0,0,1-19.42-11.78c-3.15-8.46,0-18.21,7.72-22.65,2.62-1.5,3.35-2.91,2.89-5.79-2-12.66-4-25.33-5.51-38-.4-3.26-1.8-3.79-4.43-4.51-3.11-.86-5.93-2.78-9-3.9-1.57-.58-3.81-1.19-5-.51-9.58,5.38-19,11.1-28.46,16.61-2.16,1.25-3,2.48-2.31,5.15,2.59,10.55-.22,19.59-9,26.15s-18,6.51-27.11,1c-2.52-1.52-3.94-1.23-6.05.39-5.55,4.26-11.17,8.43-17,12.34-3.24,2.18-3.32,3.47-.19,6q21.18,17.13,42,34.69c2.61,2.19,4.49,2.6,7.71.72a28,28,0,0,1,35.61,6.8c8.24,10.54,7.61,26.25-1.44,35.82a28.45,28.45,0,0,1-36.91,4c-11-7.56-14.74-22.09-8.5-34.63,1.45-2.92.81-4.18-1.4-6q-22-18.08-43.83-36.4c-2.59-2.19-4.42-2.48-7.21-.32-11.34,8.75-22.9,17.21-34.21,26-1,.77-1.34,3.36-.93,4.8,5,17.24-8.46,33.38-26.21,31-3.29-.43-4.24-.08-4.22,3.4.13,18.67-.06,37.33.16,56a7.55,7.55,0,0,0,3.26,5.3c46.38,28.14,92.91,56,139.22,84.28,4.79,2.92,8.08,2.53,12.46-.14,44.32-27,88.74-53.81,133-80.86,1.48-.91,2.57-3.68,2.59-5.6C405.23,510.47,405.18,483.3,405.18,456.14ZM205.6,370.48a60.87,60.87,0,0,1,.91-6.79c4.3-17.5,24.73-24.26,39.29-12.88,2.47,1.94,4,2.22,6.77.55,8.77-5.41,17.74-10.51,26.67-15.66,2.1-1.2,3-2.13,2-5-3.68-10.66.38-21,10.11-26.43,2.48-1.37,2.27-1.69,0-3-11.14-6.65-22.14-13.54-33.34-20.09a6.47,6.47,0,0,0-5.58-.15q-54,32.79-107.74,65.89c-1.79,1.1-2.62,2-2.16,4.65.65,3.78-.31,7.83-.3,11.76,0,1.52.28,3.65,1.28,4.47,12.48,10.25,25.14,20.29,37.69,30.46,2,1.67,3.61,1.63,5.67,0,5.66-4.38,11.34-8.76,17.26-12.77,3.41-2.32,4.63-4.59,2.72-8.55C206,374.94,206,372.45,205.6,370.48ZM114.19,401.1h0c0,8.15,0,16.31,0,24.46,0,2,.12,2.89,2.67,2.29,7-1.67,13.42.12,19.46,4a5.5,5.5,0,0,0,4.95.08c11.08-7.93,22-16.16,33-24.19,2.44-1.78,2.37-2.82,0-4.7-12-9.55-23.75-19.3-35.72-28.84a4.55,4.55,0,0,0-4.12-.29c-5.69,3.53-11.52,4.22-17.56,1.35-2.51-1.19-2.68-.28-2.66,1.88C114.23,385.12,114.19,393.11,114.19,401.1ZM276,468.46c.11-10.55-8.34-19.39-18.65-19.52a19.07,19.07,0,1,0-.32,38.14A19,19,0,0,0,276,468.46ZM583,264.22a8.79,8.79,0,0,0-8.86,8.78,9,9,0,0,0,9.21,9.06,8.84,8.84,0,0,0,8.82-8.88A8.75,8.75,0,0,0,583,264.22Z" fill="#fff"/>
    <path d="M560.94,727.23C571,715.4,581,703.45,591.26,691.75q23.6-26.91,47.52-53.52c12.11-13.43,24.53-26.59,36.82-39.86.56-.62,1.2-1.17,1.76-1.78,5.71-6.25,6-6.38,9.52,1.57,10.23,23,20.2,46.12,30.26,69.2,6,13.81,12,27.65,18.1,41.43,1.85,4.19,7.15,5.05,14,4.64,10.54-.64,21.14-.19,31.72-.16,8.49,0,17,.12,25.48.15,5.34,0,10.69.29,16-.15,1.85-.15,4.47-1.68,5.19-3.28,13.36-30,26.44-60,39.66-90q20.93-47.52,42-95,3.71-8.4,7.43-16.81c.25-.57.55-1.12.83-1.67a4.59,4.59,0,0,1,.56,1.5c0,8.79-.09,17.58.07,26.37.13,7.29.83,14.57.88,21.85.13,19.83.17,39.66,0,59.49-.11,13.62-.74,27.23-.89,40.85,0,5.12.79,10.24.8,15.36a5.9,5.9,0,0,1-2.37,4.24q-58.24,37-116.64,73.82-54,34-108,68-58,36.49-116,73c-4.62,2.9-9.45,5.5-13.92,8.63-2.09,1.46-3.35,1-5.14-.17Q511,870.19,465.09,841.07,404,802.45,342.9,763.94q-54-34-108-68c-9.67-6.08-19.44-12-29-18.17a6.21,6.21,0,0,1-2.7-4.12c-.53-13.11-.69-26.24-1.18-39.35-.14-3.74,1.06-3.26,3.4-1.76,14,8.91,28,17.68,41.85,26.73,3.53,2.3,6.26,2.58,9.92.2,11.94-7.74,24.13-15.1,36.16-22.71,3-1.92,4.42-1.09,6,2,14.16,28.59,28.49,57.11,42.77,85.65.59,1.19,1.3,2.33,1.81,3.55,1.82,4.36,4.05,5,8.13,2,7.65-5.57,16.13-5.22,23.85-.5C383.22,734,387,741,386.12,750.07c-.36,3.62-.71,7.16,4.93,6.59,2.4-.24,4.9.72,7.35.72q70.25,0,140.47,0c0,10.16.3,20.33,0,30.48-.12,4.36,1,5.61,5.5,5.6,43.15-.18,86.3-.1,129.45-.11,12.26,0,12,0,12.37-12.11.17-5.11-1.63-5.92-6.2-5.9-39.16.18-78.31.11-117.46.12-1.17,0-2.48.34-3.46-.09s-2.7-1.78-2.58-2.47a5.49,5.49,0,0,1,2.45-3.4c1-.58,2.6-.16,3.93-.16l110.46-.06c12.9,0,12.76,0,12.82-13.16,0-3.72-1-4.83-4.76-4.79-18.82.19-37.65.12-56.48.13-21.49,0-43-.07-64.48.07-3.61,0-5.26-1.29-4-4.53.42-1.06,3.24-1.62,5-1.62q56.49-.17,113-.12c11.61,0,11.34,0,11.77-11.67.18-5-1.15-6.37-6.26-6.35C640.25,727.39,600.59,727.26,560.94,727.23Zm-180.8,20.52c0-9.18-6.16-15.42-15.22-15.43-9.35,0-15.89,6.09-15.86,14.8,0,9,7.73,17.24,16,17.21S380.14,756.83,380.14,747.75Z" fill="#fff"/>
    <path d="M596.76,459.36c0,33.67.36,67.34-.11,101-.38,26.89-3.78,53.33-15.44,78.1-18.52,39.34-49.85,61.75-92.13,68.93-33.35,5.66-65.93,2.47-96.91-12-22.65-10.55-39.1-27.68-51.53-49.07-1.8-3.09.66-3.41,2.09-4.31,14.76-9.28,29.58-18.47,44.38-27.7,4.23-2.64,8.52-5.2,12.59-8.06,2.33-1.65,3.58-1.9,5.16,1,18.08,33,67.63,35.69,92.37,15.9C509,613.76,514.46,601,516.9,586.76a141.4,141.4,0,0,0,2-23.34c.17-50.83,0-101.66.22-152.49,0-4.17-1.4-4.81-5.07-4.78-21.83.2-43.67.08-65.5.32-4.19,0-4.23-.91-2.55-4.25,10.43-20.72,20.63-41.55,31.14-62.23.67-1.33,3.32-2.33,5-2.34q51-.27,102-.2c4.1,0,9.45-1.12,11.92,1,2,1.72.7,7.47.7,11.43q0,54.75,0,109.5Z" fill="#fff"/>
    <path d="M654.4,337.46c12,0,24,.05,36,0,2.41,0,3.7.44,4.73,3q38.79,96.63,77.8,193.18c15.86,39.51,31.46,79.13,47.13,118.72.45,1.14.89,2.68.49,3.69-2.22,5.54-4.59,11-7.18,16.4a4.41,4.41,0,0,1-3.32,1.91c-18,.12-36,.17-54-.07-1.41,0-3.44-2-4.08-3.6Q732.85,624.84,714,578.87,665.58,461,617.15,343.21a16.38,16.38,0,0,0-.76-1.83c-1.63-2.91-1.34-4.09,2.52-4C630.74,337.61,642.57,337.46,654.4,337.46Z" fill="#fff"/>
    <path d="M913,338c11.33,0,22.66.17,34-.09,4-.09,4.29.84,2.83,4.28q-34.15,80.55-68.11,161.18-24.19,57.49-48.19,115.08a29,29,0,0,1-1.95,3.36c-.53-1.16-1.1-2.3-1.58-3.48C818.47,590,806.88,561.6,795.5,533.17a9.4,9.4,0,0,1,.32-6.39q31.66-75.87,63.56-151.64c4.74-11.3,9.5-22.6,14-34,1.07-2.7,2.49-3.28,5.17-3.24,11.49.15,23,.06,34.48.06Z" fill="#fff"/>
    <path d="M403.45,290.65A17.18,17.18,0,0,1,386,273.31a18,18,0,0,1,17.79-17.81,17.58,17.58,0,0,1-.32,35.15Z" fill="#fff"/>
    <path d="M352.25,478.83c.23-3.39-.92-4.85-3.87-6.31-12.5-6.22-14.58-22.34-4.17-31.08,5.74-4.81,12.27-5.91,19.12-2.91s11,8.66,11.23,16.33c.27,7.88-3.4,14.12-10.39,17.38-4,1.87-4.67,4.21-4.78,8q-.45,16.73-1.44,33.44c-.22,3.67.3,5.68,4.34,7.29C372.5,525,377.88,535,376.94,546.31c-.78,9.41-8,17.69-18,20.48a23.42,23.42,0,0,1-28.93-18.23c-.71-4-2.31-5.07-6.09-5.17-7.15-.18-14.3-.78-21.41-1.5-3.17-.32-4.49.63-5.75,3.68A23.64,23.64,0,0,1,252.92,528c3.58-9.13,12.17-14.68,22.38-14.45,9.88.21,18.89,6.26,21.51,15.63,1.35,4.82,3.63,6.07,8.2,6.14,7.32.11,14.62,1,21.93,1.25a4.85,4.85,0,0,0,3.83-2.35c3-8,8.72-12.92,17-14.53,3-.58,3.27-2,3.23-4.41C350.89,509,351.86,484.63,352.25,478.83Zm16.07,65.09c.1-9-6.63-16.18-15.32-16.31-8.33-.13-15.81,7.47-15.79,16,0,8.13,7,15.15,15.31,15.39A15.18,15.18,0,0,0,368.32,543.92Z" fill="#fff"/>
    <path d="M176.94,518.65c-1.24-13.46,11.11-25.85,25.78-26,13.76-.13,25.2,11.86,25.35,25.63.13,11.71-8.51,25.94-26,25.78C187.11,543.92,176.16,532.28,176.94,518.65Z" fill="#fff"/>
  </g>
  <g>
    <path d="M178.56,951.35c35.08-.14,56,25.64,55.9,53.78-.15,32.3-25.24,55.29-58.87,54.59-31.94-.67-53.76-24.32-53.08-57.52C123.11,973.44,148.18,950.7,178.56,951.35Zm-36.7,53c-.5,21.26,15.21,38.19,35.75,38.55,20.39.35,36.58-15.78,36.95-36.83.37-20.72-15.22-37.47-35.26-37.89C158.46,967.74,142.36,983.3,141.86,1004.35Z" fill="#fff"/>
    <path d="M998.71,1005.33c0-16.15.09-32.3-.07-48.44,0-3.2.55-4.32,4.09-4.28,15.79.22,31.58-.1,47.36.11,18.49.25,31.81,10.78,35.48,27.58,3.6,16.47-4,32.78-19,39.79-3.79,1.76-1.81,3.06-.73,4.71,6.46,9.83,13,19.61,19.43,29.44a27,27,0,0,1,1.71,3.74c-1.37.17-2.76.27-4.11.52-12.13,2.3-20.51-1.78-25.64-13.48-2.64-6-7-11.42-10.94-16.77a9.08,9.08,0,0,0-5.94-3.26c-6.14-.42-12.34,0-18.5-.2-3.27-.11-4.45.84-4.37,4.26.19,8.52-.12,17.06,0,25.58,0,3-.76,4.16-3.9,3.92a63.76,63.76,0,0,0-10.88,0c-3.53.34-4.14-1-4.1-4.24.16-16.33.07-32.66.07-49ZM1017.43,989h0c0,5.25-.12,10.51.1,15.75,0,1.19,1.35,3.32,2,3.31,11.22-.14,22.51.16,33.61-1.15,8.66-1,14.33-9.58,14.27-18.61-.05-9.43-5.35-16.94-14.69-18-10.92-1.2-22-.84-33-.9-.75,0-2.1,2.09-2.15,3.25C1017.3,978.08,1017.43,983.52,1017.43,989Z" fill="#fff"/>
    <path d="M917.76,1059.71c-31.85,0-55.14-23-55.18-54.53,0-30.53,23.68-53.72,54.91-53.68,32.94,0,57,23,56.83,54.09C974.14,1036.52,949.88,1059.73,917.76,1059.71Zm36.57-54.64c0-21.06-15.54-37-36-37-21,0-36.15,15.7-36.15,37.35,0,21.26,15.81,37.6,36.26,37.47S954.36,1026.52,954.33,1005.07Z" fill="#fff"/>
    <path d="M355.43,956.84c0-3.36.77-4.2,4.13-4.18,23.42.1,46.84,0,70.26-.12,2.81,0,4.31.18,3.74,3.7-.68,4.17.85,9.91-1.4,12.27-2,2.12-7.88.61-12,.62-13.8,0-27.59.14-41.39,0-3.35,0-4.8.55-4.54,4.42a165.46,165.46,0,0,1,.05,18.5c-.15,3.41.95,4.31,4.29,4.26,14.7-.2,29.41,0,44.11-.25,3.69-.06,5,.77,4.95,4.71-.1,12.2.08,12.18-11.93,12.32-12.34.16-24.69.51-37,.44-3.68,0-4.53,1.16-4.39,4.61a178.2,178.2,0,0,1,0,19.06c-.25,3.78,1,4.52,4.47,4.48,17.43-.2,34.86,0,52.28-.35,3.93-.07,4.77,1,4.71,4.73-.22,12.37-.07,12.37-12.28,12.38-21.24,0-42.49-.09-63.73.11-3.81,0-4.8-.94-4.75-4.78C355.14,1037.63,355.63,973,355.43,956.84Z" fill="#fff"/>
    <path d="M293.81,1059.81h0c-16.56-.41-29.76-5-41.36-14.25-2.08-1.68-2.7-2.78-.85-5.08a52.86,52.86,0,0,0,5.67-8.73c1.65-3.12,2.79-3.08,5.46-.69,10.58,9.42,23.07,13.23,37.15,11.13,7.26-1.08,11.65-5,12.35-10.34.84-6.43-1.91-11.2-9.4-14-7.75-2.95-15.88-4.86-23.74-7.54-9.79-3.35-18.79-7.86-22.5-18.64-6.31-18.37,5-36.85,24.74-39.82,15.93-2.39,34.44,2.65,48.57,10.34,0,0-8.1,14.75-7.87,14.75.08,0-.15,0-.23,0a88,88,0,0,0-11.22-4.57,118.36,118.36,0,0,0-21.08-4.14c-7.5-.61-13.37,4.1-14.3,9.89-1.05,6.6,2,11,10.2,13.81,7.34,2.51,15,4.18,22.26,6.85,10,3.65,19.49,8.1,23.12,19.51,5.83,18.33-5.63,36.36-25.77,40.17C300.72,1059.23,296.38,1059.5,293.81,1059.81Z" fill="#fff"/>
    <path d="M714.83,1059.79c-28.8,0-52.12-20-54.9-46.95-3.1-30.08,15.3-55.56,45-60.74,18.14-3.17,35.36.08,50.07,12.32,2.49,2.07,3.25,3.58.49,6.23-3.12,3-5.18,8.57-8.55,9.36-2.76.65-6.65-4.31-10.27-6.38-20-11.44-44.38-4.31-53.75,15.61s0,43.81,20.48,51c14.48,5.08,27.89,1.92,39.69-7.59,2.9-2.34,4.53-2.72,6.53.65a24.2,24.2,0,0,0,3.6,4.07c4.71,4.9,4.72,4.89-.77,9.34A56.3,56.3,0,0,1,714.83,1059.79Z" fill="#fff"/>
    <path d="M502.05,952.81c9.94,0,9.95,0,13.73,9.26q13.76,33.84,27.5,67.68c.47,1.14,1.08,2.23,1.63,3.34.57-1.08,1.24-2.12,1.7-3.25q15-37.12,29.89-74.25c.42-1,1.35-2.61,2.1-2.65,5.62-.23,11.25-.15,16.87,0a9.33,9.33,0,0,1-.05,3.76c-5.32,13-10.81,26-16.18,39-8.06,19.5-16.12,39-24,58.56-1.24,3.06-2.68,4.64-6.27,4.32-4.68-.42-10.4,1.34-13.82-.8-3.11-2-3.76-7.85-5.46-12-12-29.37-23.82-58.79-36-88.07-2-4.7-.78-5.43,3.52-4.92A44.28,44.28,0,0,0,502.05,952.81Z" fill="#fff"/>
    <path d="M99.43,991.39c0,11.42.31,22.86-.07,34.27-.82,25.07-21.73,39.93-45.51,31.76-6.9-2.37-12.84-7.65-19-11.93-.83-.59-1-3.62-.23-4.73,2.19-3.3,4.48-7.59,7.71-8.75,2-.7,5.52,4.15,8.76,5.64,4.31,2,8.94,4.07,13.57,4.41a13.85,13.85,0,0,0,15.17-13.17c.66-19,.51-38.08.43-57.12,0-.89-2.51-2.5-3.88-2.53q-15.5-.3-31,0c-3.08.06-4.13-.78-3.84-3.9.39-4.07-1.1-9.44,1-11.88,1.73-2,7.47-.69,11.43-.7,13.61,0,27.22.1,40.82-.13,3.55-.06,4.6.83,4.53,4.46-.25,11.42-.09,22.86-.09,34.29Z" fill="#fff"/>
    <path d="M820,1013.67c0,13.44-.11,26.87.08,40.31,0,3.5-.83,5-4.5,4.56a66.73,66.73,0,0,0-7.62-.08c-7.36,0-7.34,0-7.35-7.64,0-25.42-.19-50.84,0-76.26,0-4.75-1.46-5.73-5.82-5.53-8,.38-16,0-24,.26-3,.09-4-.73-4-3.89-.24-12.72-.36-12.69,12.35-12.68,23.06,0,46.13.07,69.19-.09,3.68,0,5.3.22,5,4.79-.78,11.68-.48,11.7-12.07,11.7-5.45,0-10.93.34-16.34-.11-4.55-.39-5.23,1.42-5.15,5.44.24,13.07.09,26.14.09,39.22Z" fill="#fff"/>
    <path d="M616.16,1005.3c0-16.16.11-32.31-.09-48.47,0-3.44.9-4.4,4.23-4.13,4.64.39,11.09-1.43,13.49,1s.9,8.84.9,13.5c0,28.68-.11,57.36,0,86,0,4.2-1,5.85-5.4,5.35s-10.26,1.21-12.44-1-.74-8.17-.75-12.49c0-13.25,0-26.5,0-39.75Z" fill="#fff"/>
    <path d="M394,943.3l-8.47-.68c1.57-2.33,7.4-11.27,8.63-13.48,4-7.11,4-7.11,11.89-4.52,3.43,1.12,6.88,2.19,10.32,3.29,2,.63,3.41,1.17.67,3.08a69.33,69.33,0,0,0-8.45,6.83C404.43,941.78,400,944.43,394,943.3Z" fill="#fff"/>
  </g>
  <g>
    <path d="M190.48,1081.21v61.39h-5.43v-61.39Zm12.14,61.39H188.1l.09-4.47h14.43a23.09,23.09,0,0,0,11.94-3,20,20,0,0,0,7.75-8.24,26.24,26.24,0,0,0,2.74-12.25V1109a27.81,27.81,0,0,0-1.57-9.62A20.92,20.92,0,0,0,219,1092a19.93,19.93,0,0,0-6.95-4.7,23.89,23.89,0,0,0-9-1.64H187.83v-4.47H203a30.14,30.14,0,0,1,11,2,25.1,25.1,0,0,1,8.72,5.65,25.49,25.49,0,0,1,5.69,8.83,31.31,31.31,0,0,1,2,11.47v5.57a31.31,31.31,0,0,1-2,11.47,25,25,0,0,1-5.72,8.81,25.5,25.5,0,0,1-8.8,5.65A31.08,31.08,0,0,1,202.62,1142.6Z" fill="#fff"/>
    <path d="M271.25,1084.88,249,1142.6h-5.65l24.28-61.39h4Zm16.29,36v4.47H253.37v-4.47Zm3.93,21.67-22.25-57.72-.31-3.67h3.93l24.33,61.39Z" fill="#fff"/>
    <path d="M351.32,1081.21v4.47h-49.4v-4.47Zm-22,0v61.39H323.9v-61.39Z" fill="#fff"/>
    <path d="M386.13,1084.88l-22.25,57.72h-5.65l24.28-61.39h4Zm16.29,36v4.47H368.25v-4.47Zm3.93,21.67-22.25-57.72-.31-3.67h3.93l24.33,61.39Z" fill="#fff"/>
    <path d="M462.56,1081.21v61.39h-5.43v-61.39Zm34.3,0v4.47H460.93v-4.47Zm-4.28,27.53v4.43H460.93v-4.43Zm4.5,29.39v4.47H460.93v-4.47Z" fill="#fff"/>
    <path d="M563.2,1081.21v61.39h-5.47l-36.91-52.45v52.45h-5.48v-61.39h5.48l37,52.41v-52.41Z" fill="#fff"/>
    <path d="M632.76,1113.38v21.88a16.61,16.61,0,0,1-3.82,3.44,26,26,0,0,1-7.26,3.33,38.54,38.54,0,0,1-11.26,1.41,26.87,26.87,0,0,1-10.42-2,23.32,23.32,0,0,1-8.19-5.65,25.35,25.35,0,0,1-5.34-8.87,33.93,33.93,0,0,1-1.88-11.6v-7.42a35.59,35.59,0,0,1,1.72-11.4,24.81,24.81,0,0,1,5-8.71,21.56,21.56,0,0,1,7.88-5.54,26.75,26.75,0,0,1,10.36-1.92,27.51,27.51,0,0,1,12.07,2.36,18.85,18.85,0,0,1,7.64,6.47,21.66,21.66,0,0,1,3.46,9.3h-5.47a18.42,18.42,0,0,0-2.56-6.77,14.05,14.05,0,0,0-5.63-5,20.84,20.84,0,0,0-9.51-1.89,19.8,19.8,0,0,0-8.3,1.64,16.82,16.82,0,0,0-6.12,4.68,20.74,20.74,0,0,0-3.77,7.27,32.34,32.34,0,0,0-1.28,9.43v7.5a31,31,0,0,0,1.43,9.7,21.61,21.61,0,0,0,4.13,7.46,18.12,18.12,0,0,0,6.45,4.79,20.33,20.33,0,0,0,8.34,1.67,33.86,33.86,0,0,0,8.34-.89,21.23,21.23,0,0,0,5.54-2.13,12.66,12.66,0,0,0,3-2.3v-15.81H610.07v-4.47Z" fill="#fff"/>
    <path d="M661.61,1081.21v61.39h-5.43v-61.39Z" fill="#fff"/>
    <path d="M733.73,1081.21v61.39h-5.47l-36.91-52.45v52.45h-5.47v-61.39h5.47l37,52.41v-52.41Z" fill="#fff"/>
    <path d="M762.32,1081.21v61.39h-5.43v-61.39Zm34.3,0v4.47H760.69v-4.47Zm-4.28,27.53v4.43H760.69v-4.43Zm4.5,29.39v4.47H760.69v-4.47Z" fill="#fff"/>
    <path d="M820.53,1081.21v61.39H815.1v-61.39Zm34.31,0v4.47H818.9v-4.47Zm-4.29,27.53v4.43H818.9v-4.43Zm4.51,29.39v4.47H818.9v-4.47Z" fill="#fff"/>
    <path d="M873.18,1081.21h20.89a29.51,29.51,0,0,1,11.58,2.07,16.39,16.39,0,0,1,7.55,6.09,17.49,17.49,0,0,1,2.68,9.89,16.48,16.48,0,0,1-1.9,7.88,17,17,0,0,1-5.28,5.92,20.22,20.22,0,0,1-7.79,3.27l-1.86.68H876.76l-.09-4.43H895.3a17,17,0,0,0,8.39-1.88,12.65,12.65,0,0,0,5-4.91,13.07,13.07,0,0,0,1.7-6.53,13.57,13.57,0,0,0-1.87-7.24,12.16,12.16,0,0,0-5.54-4.7,22,22,0,0,0-9-1.64H878.66v56.92h-5.48Zm39.69,61.39-16.64-27.45,5.83-.08,16.6,27v.55Z" fill="#fff"/>
  </g>
</svg>
