<svg id="Camada_1" data-name="Camada 1" xmlns="http://www.w3.org/2000/svg" viewBox="0 0 610.74 246.51">
  <g>
    <path d="M577.71,137.28c-6.72-1.87-15.75-4.76-25-6.82-6.8-1.51-10-4.51-11-11.94-1.54-11.49-2.34-11.38,8.7-8.44,5.12,1.37,10.24,2.78,15.39,4a12.14,12.14,0,0,0,3.38-.16,14.25,14.25,0,0,0-.88-3.23c-4.65-8.61-9.28-17.24-14.14-25.74-1.67-2.9-1.59-4.75.88-7.35,7.89-8.3,15.42-17,23-25.51a15,15,0,0,0,1.61-2.92,16.57,16.57,0,0,0-3.39.13c-10.78,2.78-21.57,5.55-32.3,8.52-3.52,1-5.65.54-7.68-3-4.91-8.47-10.35-16.63-15.63-24.88a16,16,0,0,0-2.3-2.36,27.31,27.31,0,0,0-1,3.23c-2,10.78-4.18,21.54-5.91,32.37-.6,3.74-3.24,4.34-5.86,5.15-10.95,3.37-21.94,6.61-32.91,9.93a17.3,17.3,0,0,0-2.52,1.24,13,13,0,0,0,2.36,1.56q11.88,4.58,23.81,9c3.54,1.31,4,2.71.5,4.73-2.59,1.5-5.42,2.82-7.55,4.84-7.56,7.19-15.15,6-23.36,1.19-6-3.47-13-5.4-18.56-9.4-10.81-7.77-9-19.22,3.63-24,9.33-3.49,18.83-7,28.56-8.81,11.66-2.21,18.2-7.14,18.15-19.94,0-6.86,2.14-13.77,3.65-20.59A40.26,40.26,0,0,1,505,8.39c5.69-10.83,17.66-11.21,24.22-.93,6,9.35,12,18.65,17.9,28.07,1.59,2.57,3.22,3.08,6.13,2.31,13.17-3.48,26.41-6.7,39.63-10,.32-.08.62-.24.94-.33,6.58-1.66,13.18-.11,15.6,3.65,2.62,4.1,1.51,9.49-3.6,15.39-8.71,10-17.37,20.14-26.47,29.82-3.85,4.1-3.64,7.4-1,11.91,5.28,9.22,10.25,18.64,15,28.12C598.81,127.29,592.48,137.26,577.71,137.28Z" fill="#e3741b"/>
    <path d="M322.69,158.64C322.57,182.43,303.9,203.75,282,208c-10.9,2.1-21.18,1.18-30.88-4.26-3-1.72-4.12-.86-4.53,2.27-1,7.42-2.16,14.81-3,22.24-.34,3.11-1.48,4.4-4.67,4.24a109.9,109.9,0,0,0-11.48,0c-2.86.14-3.46-1.13-3.11-3.61,2.42-17.12,4.89-34.23,7.16-51.38,1.24-9.39,2.17-18.73,7-27.3,12.11-21.67,41.16-33.46,63.39-22.42C315.62,134.59,321.93,146,322.69,158.64ZM280.9,142.35c-15.17.12-28.61,12.75-28.6,26.87,0,12.17,9.6,21.32,22.24,21.23,15-.1,28.3-12.95,28.27-27.26C302.8,151.17,293.4,142.24,280.9,142.35Z" fill="#201b19"/>
    <path d="M.05,153.38c0-16.64.09-33.27,0-49.9,0-6.32.24-6.91,6.41-6.92,10.49,0,21-.15,31.47,0,11.68.23,22.09,3.72,28.8,14A26.11,26.11,0,0,1,71,122.42c.54,7.72.93,15.75-.6,23.24C68,157.78,59.33,165.18,47.53,168.1c-6.22,1.54-12.81,1.79-19.26,2.11-4.06.19-5.63,1.64-5.56,5.71.18,10-.13,20,.21,30,.12,3.83-1.41,4.63-4.63,4.54a110.23,110.23,0,0,0-13,0c-4.16.37-5.13-1.37-5.09-5.1.12-14,0-28,0-42v-10Zm22.7-20.68h-.07c0,4.66-.13,9.31.1,14,0,1.11,1.42,3.13,2,3.07,5.87-.62,12.15-.5,17.42-2.72,6.91-2.92,9.06-11.55,6.75-20.44-1.55-6-6.22-9.32-13.94-9.83-2.82-.19-5.66,0-8.48-.23s-3.92.89-3.82,3.72C22.85,124.38,22.75,128.54,22.75,132.7Z" fill="#e3741b"/>
    <path d="M183.26,210.1c-15.74-.41-25-6.6-30.72-20.51-1.11-2.72-1-4.11,1.88-5.4,4.68-2.13,9.26-4.52,13.72-7.09,2.78-1.6,4-1.49,5.42,1.83,4.53,10.33,13.81,13.64,22.81,8.64,7.81-4.34,9.47-11.37,3.8-18.24-3.79-4.61-8.38-8.55-12.44-13a174.66,174.66,0,0,1-12.4-14.28c-5.88-8-6.64-16.73-2.5-25.93,8.86-19.73,36.84-28.32,53.8-16.4.54.38,1.13.71,1.64,1.13,10.59,8.69,10.56,10.34-.33,18.09l-1.21.88c-2.45,1.71-4.84,4.58-7.38,4.72-1.74.09-3.65-3.65-5.54-5.62-4.64-4.81-10.45-6-15.89-3.25-6.25,3.12-7.55,8-2.9,13.23a237.37,237.37,0,0,0,18.39,19c26.56,23.88,5.31,53.95-17,59.86C192.15,208.94,187.66,209.35,183.26,210.1Z" fill="#201b19"/>
    <path d="M540.09,206.93c-9.8,2.82-14.79-2.63-19.42-10.28-5.76-9.52-12.48-18.45-18.89-27.56a28.32,28.32,0,0,0-4-3.81,37.38,37.38,0,0,0-1.69,5.53c-1.64,10.86-3.24,21.73-4.61,32.62-.35,2.71-1.15,3.72-4,3.57-4.81-.24-9.66-.11-14.48,0-2.4,0-3.17-.74-2.81-3.29,3.76-26.52,8.16-53,10.71-79.62,1-10.37,5.43-15.91,13.91-19.87,1.35-.63,2.51-1.64,3.83-2.33,2.26-1.18,4.58-2.25,6.87-3.37-.17,2.61-.21,5.22-.55,7.8-1.43,11-3,22.09-4.41,33.14a15.59,15.59,0,0,0,.4,3.68,15.39,15.39,0,0,0,3.1-2c9.08-9.51,18.08-19.1,27.15-28.62a19,19,0,0,1,3-2.15c.25,1.07.54,2.13.76,3.21.63,3.09.79,6.37,1.94,9.26,2,5-.2,8-3.6,11.14-5.7,5.35-11,11.16-16.64,16.55-2.47,2.35-2.32,4-.32,6.61,11.47,15.1,22.74,30.34,34,45.56a26.09,26.09,0,0,1,2,3.74c-1.43.18-2.87.46-4.31.5C545.43,207,542.76,206.93,540.09,206.93Z" fill="#201b19"/>
    <path d="M380.69,207.55l-4.49.76-1.43.24-11.76.07-9.24-2.17-4.27-1.88-.69-.42c-19.33-11-24.81-33.35-13.26-54.12a51.45,51.45,0,0,1,54.64-25.23c18.34,3.69,30.73,19.76,29.11,39-1.12,13.26-3.49,26.41-5.22,39.62-.34,2.63-1.42,3.74-4.22,3.58a109.17,109.17,0,0,0-12,0c-3.22.16-3.43-1.24-3-3.95,1.63-11.2,3.22-22.41,4.45-33.65a35,35,0,0,0-.66-11.41c-2.35-10.11-9.72-15.56-20.29-15.64-11.78-.1-23.62,7.78-27.37,18.22-3.14,8.73-2.45,16.95,4.46,23.54,7.54,7.19,16.61,8,26,4.21,3.34-1.35,6.28-3.67,9.38-5.55.32.72.65,1.42,1,2.13-.29,2.59-.59,5.18-.88,7.75a51.81,51.81,0,0,1-1.31,5.64c-.85,2.5-2,4.9-3,7.35l-5.24,1.74Z" fill="#201b19"/>
    <path d="M87.11,123.53c11.15,0,11.51-.11,14.56,10.08,4.9,16.36,9.28,32.88,13.87,49.33.13.45.24.91.36,1.36a8.84,8.84,0,0,0,1.09-1.83c3.17-10.83,6.29-21.67,9.45-32.5,2.14-7.33,4.36-14.64,6.45-22,.88-3.09,2.43-4.78,6-4.59,4.81.25,9.65.09,14.48,0,3-.06,4.37.5,3.14,4-8.56,24.4-16.92,48.87-25.48,73.27-3.51,10-7,20.08-11.2,29.79-3,7-8.31,13-15.95,14.73-7,1.55-14.41,1.13-21.65,1.33-.59,0-1.71-1.85-1.78-2.88-.24-4,0-8-.23-12-.12-2.79,1.06-3.36,3.63-3.1,12.08,1.25,20.8-5.77,22.28-17.92a8.77,8.77,0,0,0-.69-3.84Q91.51,168.67,77.5,130.6c-2.63-7.13-2.76-7.08,4.61-7.06Z" fill="#e3741b"/>
    <path d="M432.33,206.93c-9.49,0-9.63,0-8.42-9.41,2.13-16.5,4.28-33,6.72-49.45,1.78-11.91,11.8-21,24.26-22.29a94.52,94.52,0,0,1,14-.14c.88,0,2.1,1.73,2.42,2.86s-.23,2.61-.44,3.93c-.58,3.78,0,8.79-2.15,11-2,2-7.06,1-10.78,1.22-5,.27-7.47,2.89-8.12,7.75-2.14,15.83-4.48,31.64-6.52,47.49-1,7.94-.06,7-7.95,7.08Z" fill="#201b19"/>
    <path d="M386.61,205.62c1-2.45,2.13-4.85,3-7.35a51.81,51.81,0,0,0,1.31-5.64,87.41,87.41,0,0,1-1.06,10.16C389.6,203.91,387.73,204.69,386.61,205.62Z" fill="#e3741b"/>
    <path d="M353.77,206.45l9.24,2.17Z" fill="#e3741b"/>
    <path d="M391.78,184.88c-.32-.71-.65-1.41-1-2.13C391.14,183.46,391.46,184.17,391.78,184.88Z" fill="#e3741b"/>
    <path d="M374.77,208.55l1.43-.24Z" fill="#e3741b"/>
    <path d="M348.81,204.15l.69.42Z" fill="#e3741b"/>
    <path d="M380.69,207.55l.68-.19Z" fill="#e3741b"/>
  </g>
</svg>
