<svg id="Camada_1" data-name="Camada 1" xmlns="http://www.w3.org/2000/svg" viewBox="0 0 3656.71 1245.14">
  <g>
    <g>
      <path d="M1464.88,424.31c81.77-.35,130.59,59.76,130.3,125.35C1594.84,625,1536.34,678.54,1458,676.9c-74.44-1.55-125.31-56.69-123.71-134.07C1335.63,475.8,1394.08,422.77,1464.88,424.31Zm-85.53,123.54c-1.18,49.55,35.43,89,83.32,89.85,47.53.82,85.26-36.78,86.13-85.85.86-48.3-35.48-87.34-82.2-88.32C1418,462.51,1380.51,498.78,1379.35,547.85Z" fill="#fff"/>
      <path d="M3376.65,550.13c0-37.64.19-75.29-.17-112.92-.07-7.46,1.29-10.08,9.54-10,36.79.5,73.6-.25,110.38.25,43.1.58,74.17,25.13,82.72,64.28,8.38,38.39-9.27,76.42-44.42,92.74-8.84,4.11-4.22,7.14-1.69,11,15,22.92,30.26,45.72,45.29,68.64,1.73,2.63,2.67,5.79,4,8.7-3.2.4-6.43.62-9.59,1.22-28.27,5.36-47.79-4.15-59.75-31.42-6.17-14.09-16.21-26.62-25.51-39.1a21.22,21.22,0,0,0-13.85-7.6c-14.31-1-28.75,0-43.11-.45-7.62-.27-10.39,1.94-10.21,9.92.45,19.86-.26,39.75.11,59.62.13,7.06-1.77,9.71-9.1,9.15a147,147,0,0,0-25.35,0c-8.24.81-9.65-2.37-9.57-9.88.37-38.06.17-76.12.17-114.19ZM3420.28,512h-.09c0,12.25-.3,24.51.23,36.73.11,2.75,3.13,7.74,4.76,7.72,26.14-.34,52.47.35,78.34-2.69,20.18-2.37,33.4-22.33,33.27-43.38-.14-22-12.49-39.49-34.24-41.87-25.47-2.79-51.34-2-77-2.09-1.73,0-4.88,4.87-5,7.58C3420,486.61,3420.28,499.29,3420.28,512Z" fill="#fff"/>
      <path d="M3188,676.89c-74.24,0-128.54-53.7-128.63-127.11-.09-71.17,55.21-125.23,128-125.13,76.79.1,132.92,53.53,132.49,126.09C3319.37,622.83,3262.81,676.94,3188,676.89Zm85.24-127.36c-.07-49.1-36.23-86.28-83.86-86.23-48.9.06-84.28,36.61-84.28,87.07,0,49.55,36.85,87.64,84.52,87.34S3273.25,599.52,3273.19,549.53Z" fill="#fff"/>
      <path d="M1877.17,437.09c-.1-7.83,1.78-9.78,9.63-9.75,54.59.26,109.18.05,163.77-.28,6.56,0,10,.42,8.71,8.63-1.58,9.74,2,23.1-3.27,28.62-4.68,4.92-18.35,1.4-28.05,1.43-32.16.1-64.33.32-96.49,0-7.79-.08-11.19,1.28-10.57,10.29a385.59,385.59,0,0,1,.11,43.14c-.35,7.95,2.22,10,10,9.93,34.27-.47,68.56,0,102.83-.58,8.61-.14,11.61,1.79,11.53,11-.22,28.42.19,28.37-27.8,28.72-28.77.36-57.55,1.18-86.32,1-8.58,0-10.57,2.71-10.22,10.76a416.37,416.37,0,0,1-.1,44.41c-.58,8.83,2.38,10.54,10.41,10.44,40.63-.46,81.26-.07,121.87-.81,9.16-.17,11.13,2.29,11,11-.51,28.83-.15,28.84-28.62,28.85-49.51,0-99-.21-148.54.25-8.9.09-11.21-2.19-11.08-11.13C1876.48,625.41,1877.64,474.75,1877.17,437.09Z" fill="#fff"/>
      <path d="M1733.52,677.11h-.09c-38.59-1-69.37-11.6-96.39-33.22-4.87-3.9-6.3-6.49-2-11.83a126.12,126.12,0,0,0,13.2-20.35c3.85-7.28,6.49-7.18,12.73-1.63,24.67,22,53.78,30.86,86.6,26,16.91-2.52,27.14-11.56,28.78-24.11,2-15-4.45-26.1-21.9-32.73-18.07-6.86-37-11.31-55.34-17.57-22.83-7.81-43.8-18.33-52.44-43.45-14.73-42.83,11.64-85.9,57.66-92.81,37.12-5.57,80.27,6.17,113.2,24.1,0,0-18.86,34.38-18.34,34.38.19,0-.35.08-.52,0-2.16-1-17.43-8.31-26.16-10.66-16.11-4.33-32.6-8.31-49.15-9.66-17.47-1.42-31.16,9.57-33.31,23.08-2.45,15.38,4.59,25.64,23.76,32.19,17.12,5.85,34.92,9.74,51.88,16,23.25,8.51,45.44,18.89,53.9,45.47,13.59,42.72-13.12,84.75-60.08,93.65C1749.64,675.76,1739.52,676.39,1733.52,677.11Z" fill="#fff"/>
      <path d="M2714.92,677.06c-67.14,0-121.5-46.5-128-109.43-7.22-70.12,35.67-129.51,104.91-141.59,42.28-7.37,82.42.19,116.71,28.73,5.79,4.82,7.56,8.33,1.13,14.52-7.26,7-12.06,20-19.93,21.82-6.43,1.51-15.5-10.05-23.93-14.87-46.6-26.66-103.44-10-125.3,36.38s-.07,102.13,47.76,118.92c33.73,11.85,65,4.49,92.49-17.67,6.78-5.47,10.56-6.35,15.23,1.5,2.13,3.56,5.46,6.44,8.39,9.48,11,11.43,11,11.4-1.8,21.79C2777.05,667.37,2747.88,677.7,2714.92,677.06Z" fill="#fff"/>
      <path d="M2218.94,427.69c23.17,0,23.2,0,32,21.6Q2283,528.16,2315,607c1.09,2.67,2.53,5.2,3.8,7.8a85.58,85.58,0,0,0,4-7.59q34.85-86.54,69.68-173.08c1-2.41,3.15-6.08,4.89-6.15,13.09-.55,26.21-.36,39.32,0,.09,0,1,6.14-.11,8.77-12.4,30.37-25.2,60.59-37.72,90.91q-28.18,68.19-56,136.5c-2.88,7.12-6.24,10.82-14.61,10.06-10.9-1-24.24,3.13-32.2-1.86-7.26-4.55-8.77-18.31-12.73-28-27.91-68.47-55.54-137-84-205.29-4.57-11-1.82-12.66,8.19-11.48C2211.28,428.06,2215.13,427.69,2218.94,427.69Z" fill="#fff"/>
      <path d="M1280.43,517.62c0,26.64.72,53.3-.15,79.91-1.92,58.43-50.66,93.06-106.09,74-16.08-5.52-29.93-17.82-44.24-27.81-1.94-1.36-2.25-8.43-.53-11,5.1-7.69,10.42-17.68,18-20.39,4.56-1.64,12.86,9.67,20.41,13.14,10.06,4.62,20.86,9.48,31.63,10.29,18.53,1.39,34.71-12.13,35.36-30.71,1.56-44.34,1.2-88.75,1-133.13,0-2.07-5.85-5.84-9-5.9q-36.15-.69-72.31,0c-7.19.15-9.64-1.82-9-9.09.9-9.49-2.57-22,2.3-27.68,4-4.71,17.41-1.61,26.64-1.64,31.72-.11,63.44.23,95.15-.3,8.29-.13,10.74,1.92,10.55,10.39-.56,26.63-.21,53.28-.21,79.92Z" fill="#fff"/>
      <path d="M2960.17,569.56c0,31.32-.27,62.65.18,94,.11,8.17-1.93,11.62-10.5,10.62-5.85-.68-11.83-.17-17.76-.18-17.14,0-17.1,0-17.12-17.8,0-59.26-.44-118.52.09-177.78.1-11.05-3.41-13.34-13.56-12.87-18.59.87-37.25.07-55.86.61-7.1.2-9.31-1.7-9.45-9.07-.55-29.65-.83-29.59,28.8-29.58,53.76,0,107.52.17,161.27-.19,8.58-.06,12.37.5,11.65,11.15-1.83,27.23-1.13,27.28-28.15,27.28-12.7,0-25.47.8-38.08-.26-10.62-.9-12.19,3.32-12,12.68.57,30.46.21,61,.21,91.42Z" fill="#fff"/>
      <path d="M2484.92,550.06c0-37.66.27-75.32-.21-113-.1-8,2.1-10.27,9.85-9.62,10.83.89,25.87-3.35,31.47,2.24s2.08,20.61,2.09,31.49c0,66.85-.27,133.7.06,200.55.05,9.79-2.41,13.63-12.59,12.46-10-1.15-23.91,2.84-29-2.38s-1.72-19.05-1.74-29.1c-.09-30.89,0-61.78,0-92.66Z" fill="#fff"/>
      <path d="M1967,405.54,1947.27,404c3.64-5.43,17.22-26.29,20.11-31.43,9.31-16.57,9.26-16.58,27.72-10.55,8,2.61,16,5.11,24,7.67,4.59,1.48,8,2.75,1.57,7.19a160.47,160.47,0,0,0-19.7,15.93C1991.37,402,1981,408.16,1967,405.54Z" fill="#fff"/>
    </g>
    <g>
      <path d="M522.43,455.22c-25.06,23.93-50.19,47.79-75.09,71.89-2.71,2.61-4.2,1.23-6.24,0Q371,483.74,300.94,440.34c-2.65-1.64-4.55-2.26-7.37-.09-3.25,2.5-7.06,4.29-10.71,6.26-1.9,1-2.74,1.41-.14,3,15.39,9.2,30.64,18.61,46,27.92,34,20.67,68,41.46,102.23,61.84,5.12,3,6.64,6.22,6.62,12-.2,56.66,0,113.33-.1,170a6.8,6.8,0,0,1-2.69,5q-71.83,43.86-143.91,87.32a7,7,0,0,1-6.05,0Q209.3,768.45,134,723.1c-2.59-1.55-3.59-3.18-3.57-6.27q.22-32.75,0-65.49a9.32,9.32,0,0,0-1.89-5.7,24.87,24.87,0,0,1-.87-32,12.27,12.27,0,0,0,2.55-7c.18-20.84.09-41.67.06-62.5,0-4.9-1.05-10,.06-14.67,3-12.43,16.37-17.64,27.61-11.57a6.65,6.65,0,0,0,5.62,0q30.16-18.44,60-37.37a7.07,7.07,0,0,0,2.6-5.12c.19-12.17.2-24.34-.06-36.5-.08-3.26,1-5,3.68-6.71q109.67-68,219.19-136.25c44.23-27.64,88.19-55.73,132.37-83.46a6.9,6.9,0,0,1,6,.18q69.71,43.57,139.22,87.49,74.11,46.89,148,94.12c1.51,1,2.87,2.15,4.3,3.23a46.12,46.12,0,0,1-5.58.66q-143.74.08-287.48,0a10.78,10.78,0,0,0-8.29,3.42c-14.5,14.25-29.19,28.3-43.78,42.46a17.68,17.68,0,0,0-2.07,3c1.12.09,2.24.25,3.36.25,14.33,0,28.66-.12,43,0,3.19,0,4.47-.77,4.23-4.16-.29-4,.17-8-.13-12-.29-3.72.6-5,4.73-4.94,43.16.28,86.33.33,129.49.41,5.17,0,10.35.1,15.49-.27,3-.22,3.69.79,3.54,3.54a74.65,74.65,0,0,0,.06,11c.32,3.5-.76,4.42-4.31,4.4-26.5-.17-53-.1-79.49-.1h-6.5c-6.52,0-6.29,0-6.59,6.3-.18,3.77,1,4.74,4.73,4.72,28.83-.18,57.67,0,86.5-.24,4.38,0,6.29.79,5.65,5.54-.59,4.37,1,10.27-1.28,12.79-2,2.19-8.14.63-12.45.64-44.84.09-89.67.1-134.5.35-4.19,0-5.37-1-5.09-5.15.32-4.94,1.73-12-.83-14.36-2.94-2.67-9.69-1.35-14.79-1.43-13.33-.2-26.66-.22-40-.32a21.14,21.14,0,0,1,1-2.16c.73-1.25,1.55-2.44,2.33-3.66-1.43,0-2.86-.15-4.28-.15q-34.75,0-69.5,0c-2.27,0-4.09.08-4.7-3-1.9-9.4-8.09-15-16.91-17.94-2.41-.79-3.38-1.77-3.37-4.46.07-21-.13-42,0-63,0-9.42,5.46-15,14.89-15.12,28.49-.21,57-.1,85.49-.22,2.82,0,3.78.89,3.73,3.71-.13,7.83.2,15.67-.1,23.5-.14,3.86.83,5,4.87,5,46.66-.17,93.32-.12,140-.18,4.27,0,10.2,1.24,12.36-1s.48-8.17,1-12.42c.5-4.44-1.41-5.08-5.35-5.06-31.83.15-63.66.07-95.48.08-11.34,0-22.67-.15-34,.14-4,.1-4.31-1.76-4.07-4.81.31-3.82,3.22-2.22,4.93-2.23,40.33-.1,80.66-.06,121-.09,13,0,12.78-.06,13.06-12.88.1-4.28-1.2-5.15-5.27-5.13-36,.2-72,.16-108,.19-7.5,0-15-.1-22.5,0-2.56.05-3.31-.7-3.51-3.33-.31-4.14,2.21-3.59,4.72-3.6,43.17,0,86.33-.14,129.49-.07,3.8,0,5.48-.75,5-4.87a48.44,48.44,0,0,1,0-9.48c.28-3.32-.54-4.58-4.25-4.57q-74.74.21-149.48,0c-4,0-4.69,1.34-4.57,4.87.24,7-.2,14,.14,21,.2,4.12-1.27,4.94-5.1,4.92q-41.49-.21-83,0c-14.82.05-22.93,8.07-23,22.83-.07,19.66,0,39.33.19,59,.06,4.28-.64,6.61-5.29,8.22-11.1,3.82-17.23,15.07-15.53,26.67,1.54,10.54,11.13,19.69,21.57,20.57,11.94,1,22.8-6,26.11-17.25.91-3.11,2.35-3.73,5.22-3.72,20.83.07,41.66,0,62.49,0A15.45,15.45,0,0,1,522.43,455.22Zm-93,178.67h-.12q0-20.25,0-40.5c0-13.66-.06-27.33.18-41,.05-3.12-.95-4.84-3.55-6.3-4.78-2.69-9.4-5.68-14.09-8.53-20.48-12.44-41-24.84-61.39-37.38-3.2-2-3.88-1.49-3.86,2.21,0,8.63-4.37,14.67-11.59,19.09a5.59,5.59,0,0,0-2,4.53c1.67,12.71,3.7,25.38,5.48,38.07.43,3.09,1.25,4.72,4.86,5.45,9,1.81,14.5,9.54,14.15,18.57A18.87,18.87,0,0,1,341,606.06a18.45,18.45,0,0,1-19.42-11.78c-3.15-8.46,0-18.2,7.72-22.65,2.62-1.5,3.35-2.91,2.89-5.79-2-12.66-4-25.32-5.51-38.05-.4-3.26-1.8-3.79-4.43-4.51-3.12-.86-5.93-2.77-9-3.9-1.57-.58-3.81-1.19-5-.5-9.58,5.37-19,11.1-28.46,16.6-2.16,1.26-3,2.48-2.31,5.15,2.59,10.56-.22,19.59-9,26.15s-18,6.51-27.11,1c-2.52-1.52-3.94-1.22-6.05.39-5.55,4.26-11.17,8.44-17,12.34-3.24,2.19-3.32,3.48-.19,6q21.18,17.13,42,34.69c2.61,2.2,4.49,2.6,7.71.72a28,28,0,0,1,35.6,6.8c8.25,10.54,7.62,26.25-1.43,35.83a28.46,28.46,0,0,1-36.92,4c-11-7.55-14.73-22.09-8.49-34.63,1.45-2.92.81-4.17-1.4-6q-22-18.07-43.83-36.4c-2.59-2.19-4.42-2.47-7.21-.32-11.34,8.76-22.9,17.22-34.21,26-1,.77-1.34,3.37-.93,4.81,5,17.23-8.46,33.37-26.22,31-3.28-.44-4.23-.09-4.21,3.4.13,18.66-.06,37.33.16,56a7.51,7.51,0,0,0,3.26,5.3c46.38,28.14,92.91,56,139.22,84.28,4.79,2.92,8.08,2.53,12.46-.14,44.31-27,88.74-53.81,133-80.86,1.48-.91,2.57-3.68,2.59-5.59C429.48,688.22,429.43,661.06,429.43,633.89ZM229.85,548.23a63.44,63.44,0,0,1,.9-6.79c4.31-17.5,24.74-24.26,39.3-12.87,2.47,1.93,4.05,2.22,6.77.54,8.77-5.41,17.74-10.51,26.67-15.65,2.1-1.21,3-2.14,2-5-3.68-10.65.38-21,10.11-26.42,2.48-1.38,2.27-1.69,0-3-11.14-6.64-22.14-13.54-33.34-20.09a6.54,6.54,0,0,0-5.58-.15q-54,32.79-107.74,65.89c-1.79,1.1-2.62,2-2.16,4.65.65,3.79-.31,7.83-.3,11.76,0,1.53.28,3.65,1.28,4.47C180.31,555.78,193,565.81,205.52,576c2,1.66,3.6,1.63,5.67,0,5.66-4.37,11.34-8.76,17.26-12.77,3.41-2.32,4.63-4.59,2.72-8.55C230.21,552.69,230.22,550.2,229.85,548.23Zm-91.41,30.62h0c0,8.15.05,16.31,0,24.47,0,2,.11,2.89,2.66,2.28,7-1.67,13.43.12,19.47,4a5.47,5.47,0,0,0,4.95.08c11.08-7.93,21.95-16.16,33-24.19,2.44-1.78,2.37-2.82,0-4.7-12-9.55-23.75-19.3-35.73-28.83a4.47,4.47,0,0,0-4.11-.29c-5.69,3.53-11.52,4.21-17.56,1.34-2.51-1.19-2.68-.28-2.66,1.88C138.48,562.87,138.44,570.86,138.44,578.85Zm161.79,67.37c.11-10.56-8.34-19.4-18.65-19.52a19.07,19.07,0,1,0-.33,38.13A19,19,0,0,0,300.23,646.22ZM607.27,442a8.79,8.79,0,0,0-8.86,8.79,9,9,0,0,0,9.21,9.05,8.84,8.84,0,0,0,8.82-8.88A8.75,8.75,0,0,0,607.27,442Z" fill="#fff"/>
      <path d="M585.19,905c10.1-11.83,20.07-23.78,30.32-35.47Q639.11,842.58,663,816c12.11-13.43,24.53-26.59,36.82-39.86.56-.61,1.2-1.16,1.76-1.78,5.71-6.25,6-6.38,9.52,1.57,10.22,23,20.2,46.12,30.26,69.2,6,13.81,12,27.65,18.1,41.44,1.85,4.19,7.15,5,14,4.63,10.54-.63,21.14-.19,31.72-.16,8.49,0,17,.12,25.48.16,5.33,0,10.69.29,16-.15,1.85-.16,4.47-1.69,5.19-3.29,13.35-30,26.44-60,39.66-90q20.93-47.54,42-95,3.71-8.4,7.43-16.81c.25-.57.55-1.12.83-1.67a4.56,4.56,0,0,1,.56,1.51c0,8.79-.09,17.58.07,26.36.13,7.29.83,14.57.88,21.86.13,19.83.17,39.66,0,59.48-.12,13.62-.74,27.24-.89,40.86,0,5.11.79,10.23.8,15.35a5.9,5.9,0,0,1-2.37,4.24q-58.24,37-116.64,73.82-54,34-108,68-58,36.49-116,73c-4.62,2.91-9.45,5.5-13.92,8.63-2.09,1.46-3.35,1-5.14-.17q-45.87-29.21-91.78-58.32-61.05-38.62-122.19-77.13-54-34-108-68c-9.67-6.08-19.44-12-29.05-18.18a6.17,6.17,0,0,1-2.7-4.12c-.54-13.11-.69-26.23-1.18-39.34-.14-3.74,1.06-3.26,3.4-1.77,14,8.92,28,17.68,41.85,26.73,3.53,2.3,6.26,2.58,9.92.21,11.94-7.75,24.13-15.11,36.16-22.72,3-1.92,4.42-1.09,6,2q21.25,42.9,42.78,85.65c.59,1.19,1.29,2.33,1.81,3.56,1.82,4.36,4.05,5,8.13,2,7.65-5.56,16.13-5.21,23.85-.5,7.37,4.5,11.17,11.53,10.27,20.56-.36,3.62-.71,7.16,4.93,6.59,2.4-.24,4.9.72,7.35.72q70.25,0,140.47,0c0,10.17.3,20.33,0,30.49-.12,4.35,1,5.61,5.5,5.59,43.15-.18,86.3-.1,129.45-.11,12.26,0,12,0,12.37-12.11.17-5.1-1.63-5.92-6.21-5.9-39.15.18-78.3.11-117.45.12-1.17,0-2.48.34-3.46-.09s-2.7-1.78-2.58-2.47a5.49,5.49,0,0,1,2.45-3.4c1-.58,2.6-.15,3.93-.15L697.58,947c12.9,0,12.76,0,12.81-13.16,0-3.72-1-4.83-4.75-4.79-18.83.2-37.65.12-56.48.13-21.49,0-43-.07-64.48.07-3.61,0-5.26-1.29-4-4.52.43-1.06,3.25-1.63,5-1.63q56.49-.17,113-.12c11.61,0,11.34,0,11.76-11.67.19-5-1.14-6.37-6.25-6.34C664.5,905.15,624.84,905,585.19,905ZM404.38,925.5c0-9.18-6.15-15.41-15.21-15.43-9.35,0-15.89,6.09-15.86,14.8,0,9,7.73,17.25,16,17.21S404.39,934.58,404.38,925.5Z" fill="#fff"/>
      <path d="M621,637.11c0,33.67.36,67.34-.11,101-.38,26.88-3.78,53.32-15.44,78.1-18.52,39.33-49.85,61.75-92.14,68.92-33.34,5.66-65.92,2.47-96.9-12-22.65-10.56-39.11-27.69-51.53-49.08-1.8-3.09.66-3.41,2.09-4.31q22.14-13.9,44.38-27.7c4.23-2.64,8.52-5.19,12.59-8.06,2.33-1.65,3.58-1.9,5.16,1,18.08,33,67.63,35.69,92.36,15.91,11.75-9.4,17.24-22.17,19.68-36.4a141.37,141.37,0,0,0,2-23.33c.17-50.83,0-101.67.22-152.5,0-4.16-1.4-4.81-5.07-4.78-21.83.21-43.67.08-65.5.32-4.19,0-4.23-.91-2.55-4.24,10.42-20.73,20.63-41.56,31.14-62.24.67-1.33,3.32-2.33,5-2.34q51-.27,102-.19c4.1,0,9.45-1.13,11.92,1,2,1.72.7,7.47.7,11.44q0,54.75,0,109.49Z" fill="#fff"/>
      <path d="M678.65,515.21c12,0,24,0,36,0,2.41,0,3.7.45,4.73,3q38.79,96.64,77.8,193.18c15.86,39.52,31.46,79.14,47.13,118.73.45,1.13.89,2.67.49,3.68-2.22,5.54-4.59,11-7.18,16.4a4.38,4.38,0,0,1-3.33,1.91c-18,.12-36,.17-54-.07-1.41,0-3.44-2-4.08-3.59q-19.12-45.86-37.94-91.82Q689.83,638.8,641.4,521a16.53,16.53,0,0,0-.76-1.84c-1.63-2.91-1.34-4.08,2.52-4C655,515.36,666.82,515.21,678.65,515.21Z" fill="#fff"/>
      <path d="M937.27,515.73c11.33,0,22.66.17,34-.09,4-.09,4.29.84,2.83,4.28Q939.94,600.47,906,681.1q-24.19,57.49-48.19,115.08a29.15,29.15,0,0,1-1.95,3.37c-.53-1.16-1.1-2.31-1.58-3.49-11.54-28.36-23.13-56.71-34.51-85.14a9.37,9.37,0,0,1,.32-6.38q31.66-75.87,63.56-151.65c4.74-11.3,9.49-22.6,14-34,1.07-2.71,2.49-3.29,5.17-3.25,11.49.15,23,.07,34.48.07Z" fill="#fff"/>
      <path d="M427.7,468.4a17.18,17.18,0,0,1-17.47-17.34A18,18,0,0,1,428,433.25a17.58,17.58,0,0,1-.32,35.15Z" fill="#fff"/>
      <path d="M376.5,656.59c.23-3.4-.92-4.86-3.87-6.32-12.5-6.21-14.58-22.34-4.17-31.07,5.74-4.82,12.27-5.92,19.12-2.92s11,8.67,11.23,16.34c.27,7.87-3.4,14.11-10.39,17.37-4,1.87-4.67,4.21-4.78,8q-.45,16.72-1.44,33.43c-.22,3.68.3,5.68,4.34,7.29,10.21,4.06,15.59,14.09,14.65,25.39-.78,9.41-8.05,17.69-18,20.47a23.41,23.41,0,0,1-28.93-18.23c-.72-4-2.31-5.06-6.09-5.16-7.15-.19-14.3-.78-21.41-1.5-3.17-.33-4.49.62-5.75,3.67a23.64,23.64,0,0,1-43.88-17.58c3.58-9.13,12.17-14.68,22.38-14.45,9.88.22,18.89,6.27,21.51,15.63,1.35,4.82,3.63,6.07,8.2,6.14,7.32.11,14.62,1,21.93,1.26A4.9,4.9,0,0,0,355,712c3-8,8.72-12.92,17-14.54,3-.58,3.27-2,3.23-4.41C375.14,686.7,376.11,662.38,376.5,656.59Zm16.07,65.08c.1-9-6.63-16.18-15.32-16.31-8.33-.13-15.81,7.47-15.79,16,0,8.13,7,15.15,15.3,15.39A15.18,15.18,0,0,0,392.57,721.67Z" fill="#fff"/>
      <path d="M201.19,696.4c-1.24-13.46,11.11-25.85,25.78-26,13.76-.14,25.2,11.85,25.35,25.62.13,11.71-8.51,25.94-26,25.78C211.36,721.67,200.41,710,201.19,696.4Z" fill="#fff"/>
    </g>
  </g>
  <g>
    <path d="M1492.67,727V870.1H1480V727ZM1521,870.1h-33.85l.2-10.41H1521q16.15,0,27.84-6.88a46.85,46.85,0,0,0,18.06-19.22q6.38-12.33,6.38-28.55V791.77a65,65,0,0,0-3.66-22.41,48.54,48.54,0,0,0-10.44-17.15,46.19,46.19,0,0,0-16.21-11,55.45,55.45,0,0,0-21-3.83h-35.4V727h35.4a70.18,70.18,0,0,1,25.72,4.57A58.31,58.31,0,0,1,1568,744.74a59.24,59.24,0,0,1,13.27,20.59,73,73,0,0,1,4.69,26.74v13a72.94,72.94,0,0,1-4.69,26.73,58.27,58.27,0,0,1-13.32,20.54,59.39,59.39,0,0,1-20.53,13.17A72.37,72.37,0,0,1,1521,870.1Z" fill="#fff"/>
    <path d="M1681,735.55,1629.09,870.1h-13.18l56.6-143.1h9.26Zm38,84V830h-79.65V819.58Zm9.16,50.52-51.86-134.55-.72-8.55h9.15l56.71,143.1Z" fill="#fff"/>
    <path d="M1867.58,727v10.42H1752.43V727Zm-51.35,0V870.1h-12.55V727Z" fill="#fff"/>
    <path d="M1948.73,735.55,1896.87,870.1H1883.7L1940.3,727h9.26Zm38,84V830h-79.65V819.58Zm9.16,50.52L1944,735.55l-.72-8.55h9.16l56.7,143.1Z" fill="#fff"/>
    <path d="M2126.89,727V870.1h-12.66V727Zm80,0v10.42h-83.76V727Zm-10,64.18V801.5h-73.78V791.18Zm10.5,68.51V870.1h-84.28V859.69Z" fill="#fff"/>
    <path d="M2361.47,727V870.1h-12.76l-86-122.26V870.1h-12.76V727h12.76l86.24,122.17V727Z" fill="#fff"/>
    <path d="M2523.61,802v51q-2.57,3.54-8.9,8t-16.93,7.77q-10.61,3.29-26.24,3.29a62.63,62.63,0,0,1-24.28-4.57,54.55,54.55,0,0,1-19.09-13.17,59.2,59.2,0,0,1-12.46-20.69,79.17,79.17,0,0,1-4.37-27v-17.3a82.66,82.66,0,0,1,4-26.58,57.48,57.48,0,0,1,11.63-20.3,50.52,50.52,0,0,1,18.37-12.92,62.32,62.32,0,0,1,24.13-4.47q16.77,0,28.15,5.5a44,44,0,0,1,17.8,15.09,50.52,50.52,0,0,1,8.08,21.67h-12.76a42.81,42.81,0,0,0-6-15.78,32.71,32.71,0,0,0-13.12-11.64q-8.6-4.43-22.18-4.43a46.21,46.21,0,0,0-19.34,3.84,39.08,39.08,0,0,0-14.26,10.91,48.3,48.3,0,0,0-8.79,16.95,75.46,75.46,0,0,0-3,22v17.49a71.54,71.54,0,0,0,3.35,22.61,50.17,50.17,0,0,0,9.62,17.39,42.24,42.24,0,0,0,15,11.16,47.41,47.41,0,0,0,19.45,3.88,79.41,79.41,0,0,0,19.45-2.06,50,50,0,0,0,12.92-5,29.76,29.76,0,0,0,7-5.35V812.41h-40.23V802Z" fill="#fff"/>
    <path d="M2590.87,727V870.1h-12.66V727Z" fill="#fff"/>
    <path d="M2759,727V870.1h-12.76l-86-122.26V870.1h-12.76V727h12.76l86.24,122.17V727Z" fill="#fff"/>
    <path d="M2825.62,727V870.1H2813V727Zm80,0v10.42h-83.77V727Zm-10,64.18V801.5h-73.79V791.18Zm10.49,68.51V870.1h-84.28V859.69Z" fill="#fff"/>
    <path d="M2961.32,727V870.1h-12.66V727Zm79.95,0v10.42h-83.76V727Zm-10,64.18V801.5h-73.78V791.18Zm10.5,68.51V870.1h-84.28V859.69Z" fill="#fff"/>
    <path d="M3084,727h48.68q15.63,0,27,4.82a38.53,38.53,0,0,1,17.6,14.2q6.23,9.39,6.22,23.05a38.3,38.3,0,0,1-4.42,18.38,39.63,39.63,0,0,1-12.3,13.8,47,47,0,0,1-18.16,7.62l-4.33,1.57h-52l-.21-10.32h43.43q11.73,0,19.55-4.37a29.68,29.68,0,0,0,11.78-11.45,30.68,30.68,0,0,0,4-15.23,31.55,31.55,0,0,0-4.37-16.86,28.24,28.24,0,0,0-12.91-11q-8.55-3.82-20.89-3.83H3096.8V870.1H3084Zm92.51,143.1-38.79-64,13.58-.2,38.7,62.91v1.27Z" fill="#fff"/>
  </g>
</svg>
