<svg id="Camada_1" data-name="Camada 1" xmlns="http://www.w3.org/2000/svg" viewBox="0 0 1109.71 1245.14">
  <g>
    <path d="M515.94,394.12c-30.17,28.8-60.42,57.52-90.39,86.52-3.26,3.15-5.05,1.48-7.51,0q-84.39-52.16-168.71-104.4c-3.19-2-5.48-2.72-8.87-.11-3.91,3-8.51,5.16-12.89,7.53-2.29,1.24-3.3,1.71-.18,3.58,18.53,11.06,36.89,22.4,55.33,33.59,41,24.89,81.87,49.91,123,74.44,6.17,3.68,8,7.49,8,14.51-.24,68.2,0,136.41-.12,204.62a8.18,8.18,0,0,1-3.24,6q-86.46,52.78-173.22,105.11a8.48,8.48,0,0,1-7.28,0Q139,771.14,48.35,716.55c-3.1-1.86-4.32-3.82-4.29-7.54q.27-39.4,0-78.83a11.23,11.23,0,0,0-2.28-6.86,29.93,29.93,0,0,1-1-38.57,15,15,0,0,0,3.07-8.42c.21-25.07.1-50.15.07-75.22,0-5.9-1.26-12.08.07-17.66,3.57-14.95,19.7-21.23,33.23-13.93a8,8,0,0,0,6.77,0q36.3-22.2,72.23-45c1.71-1.08,3.09-4.05,3.13-6.16.23-14.64.24-29.29-.08-43.93-.08-3.93,1.17-6.05,4.44-8.08q132-81.88,263.83-164c53.25-33.27,106.16-67.09,159.34-100.46,1.75-1.1,5.45-.93,7.27.21Q678,154.54,761.67,207.39q89.21,56.46,178.17,113.3c1.82,1.15,3.46,2.58,5.18,3.88a55,55,0,0,1-6.72.8q-173,.09-346,0a13,13,0,0,0-10,4.12c-17.46,17.15-35.14,34.06-52.71,51.1a22.11,22.11,0,0,0-2.49,3.67c1.35.1,2.7.29,4,.29,17.26,0,34.51-.13,51.76,0,3.84,0,5.39-.93,5.1-5-.35-4.79.21-9.65-.16-14.43-.34-4.48.73-6,5.69-6,52,.35,103.92.4,155.87.5,6.22,0,12.46.12,18.65-.33,3.62-.26,4.44.95,4.26,4.27a91.27,91.27,0,0,0,.07,13.23c.38,4.2-.92,5.31-5.18,5.28-31.9-.2-63.8-.11-95.69-.12h-7.83c-7.84,0-7.56,0-7.93,7.59-.21,4.54,1.18,5.7,5.7,5.67,34.71-.21,69.41,0,104.12-.28,5.27,0,7.57.94,6.8,6.66-.71,5.26,1.24,12.37-1.54,15.4-2.41,2.63-9.8.76-15,.77-54,.11-107.93.12-161.89.42-5.05,0-6.47-1.18-6.14-6.19.39-5.95,2.09-14.49-1-17.29-3.54-3.22-11.67-1.63-17.81-1.72-16-.25-32.08-.27-48.12-.39a26.64,26.64,0,0,1,1.2-2.6c.89-1.5,1.87-2.94,2.81-4.4-1.72-.07-3.44-.19-5.16-.19q-41.82,0-83.64,0c-2.74,0-4.93.09-5.67-3.58-2.28-11.31-9.73-18.1-20.36-21.59-2.89-1-4.06-2.13-4.05-5.37.09-25.27-.16-50.55,0-75.82,0-11.34,6.56-18.11,17.91-18.19,34.3-.26,68.61-.13,102.91-.28,3.4,0,4.55,1.07,4.49,4.47-.16,9.43.24,18.87-.11,28.28-.18,4.65,1,6,5.85,6,56.17-.2,112.33-.14,168.5-.22,5.14,0,12.27,1.5,14.88-1.19s.58-9.84,1.16-15c.6-5.34-1.7-6.11-6.44-6.09-38.31.18-76.62.09-114.93.09-13.64,0-27.29-.17-40.92.17-4.81.13-5.2-2.11-4.9-5.79.37-4.59,3.87-2.67,5.94-2.67q72.81-.18,145.62-.11c15.63,0,15.39-.07,15.73-15.51.12-5.15-1.45-6.19-6.34-6.17-43.33.24-86.66.19-130,.23-9,0-18.06-.13-27.08,0-3.09.06-4-.84-4.22-4-.38-5,2.65-4.32,5.68-4.32,51.95,0,103.9-.18,155.86-.09,4.58,0,6.59-.91,6-5.86a57.35,57.35,0,0,1,0-11.42c.34-4-.65-5.51-5.11-5.5q-90,.26-179.93,0c-4.8,0-5.64,1.61-5.5,5.86.29,8.41-.24,16.86.17,25.26.24,5-1.53,6-6.14,5.93q-50-.26-99.9,0c-17.84.06-27.6,9.72-27.66,27.48-.08,23.67-.06,47.34.24,71,.06,5.15-.78,8-6.38,9.89-13.35,4.6-20.74,18.14-18.69,32.11,1.86,12.69,13.4,23.7,26,24.75,14.38,1.22,27.45-7.17,31.43-20.76,1.1-3.74,2.83-4.48,6.29-4.47,25.07.08,50.15,0,75.22,0A18.34,18.34,0,0,1,515.94,394.12ZM404,609.18h-.15q0-24.37,0-48.75c0-16.45-.08-32.9.21-49.35.07-3.74-1.14-5.82-4.27-7.58-5.76-3.24-11.32-6.83-17-10.26-24.64-15-49.31-29.91-73.89-45-3.85-2.37-4.67-1.79-4.64,2.66.06,10.39-5.26,17.66-14,23a6.76,6.76,0,0,0-2.45,5.46c2,15.3,4.46,30.54,6.59,45.83.52,3.7,1.52,5.67,5.86,6.55,10.81,2.18,17.45,11.48,17,22.35a22.71,22.71,0,0,1-19.83,21.61,22.2,22.2,0,0,1-23.38-14.18c-3.79-10.18,0-21.91,9.29-27.26,3.15-1.81,4-3.5,3.49-7-2.41-15.24-4.8-30.49-6.65-45.8-.47-3.93-2.15-4.56-5.32-5.44-3.75-1-7.14-3.33-10.83-4.69-1.88-.69-4.59-1.43-6.06-.6-11.52,6.46-22.81,13.36-34.25,20-2.6,1.5-3.56,3-2.78,6.19,3.11,12.71-.27,23.59-10.81,31.48s-21.64,7.83-32.63,1.18c-3-1.83-4.75-1.48-7.28.47-6.68,5.13-13.45,10.15-20.42,14.85-3.9,2.63-4,4.19-.24,7.23q25.5,20.61,50.56,41.75c3.14,2.64,5.41,3.13,9.28.87a33.73,33.73,0,0,1,42.86,8.18c9.92,12.69,9.16,31.6-1.73,43.13a34.27,34.27,0,0,1-44.44,4.8c-13.23-9.1-17.73-26.6-10.23-41.69,1.75-3.52,1-5-1.68-7.21q-26.5-21.76-52.75-43.82c-3.13-2.63-5.32-3-8.69-.38-13.64,10.54-27.56,20.72-41.17,31.3-1.19.94-1.62,4.06-1.12,5.79C96.56,615.6,80.38,635,59,632.19c-4-.53-5.1-.11-5.07,4.09.16,22.47-.07,44.94.19,67.4,0,2.18,2,5.21,3.93,6.38,55.82,33.88,111.83,67.44,167.57,101.45,5.77,3.52,9.73,3,15-.17C294,778.85,347.44,746.57,400.74,714c1.79-1.09,3.1-4.43,3.11-6.74C404.05,674.58,404,641.88,404,609.18ZM163.75,506.07a76.3,76.3,0,0,1,1.1-8.18c5.17-21.06,29.77-29.19,47.29-15.49,3,2.33,4.87,2.67,8.15.65,10.56-6.51,21.35-12.65,32.11-18.84,2.53-1.45,3.66-2.57,2.46-6-4.44-12.82.45-25.32,12.16-31.8,3-1.66,2.73-2,0-3.64-13.42-8-26.65-16.3-40.13-24.19-1.74-1-5.07-1.18-6.72-.18q-65,39.48-129.69,79.32c-2.15,1.32-3.15,2.38-2.6,5.59.79,4.56-.37,9.43-.36,14.16,0,1.83.34,4.39,1.54,5.38,15,12.34,30.27,24.42,45.37,36.67,2.47,2,4.34,2,6.82,0,6.82-5.27,13.65-10.54,20.78-15.37,4.11-2.79,5.57-5.53,3.28-10.29C164.18,511.44,164.2,508.44,163.75,506.07Zm-110,36.86h0c0,9.81.06,19.63,0,29.45,0,2.45.13,3.48,3.2,2.75,8.46-2,16.16.14,23.43,4.8,1.47.93,4.62,1.05,6,.1,13.34-9.55,26.43-19.46,39.69-29.13,2.94-2.13,2.86-3.39,0-5.65C111.59,533.76,97.39,522,83,510.54a5.46,5.46,0,0,0-5-.35c-6.85,4.25-13.87,5.07-21.14,1.62-3-1.43-3.23-.34-3.2,2.27C53.78,523.69,53.72,533.31,53.72,542.93ZM248.48,624c.12-12.7-10-23.34-22.46-23.49a23.15,23.15,0,0,0-23.19,22.79c-.24,12.38,10.31,23.07,22.8,23.11A22.92,22.92,0,0,0,248.48,624ZM618.06,378.16a10.59,10.59,0,0,0-10.67,10.58,10.87,10.87,0,0,0,11.09,10.9,10.74,10.74,0,1,0-.42-21.48Z" fill="#081035"/>
    <path d="M591.48,935.49c12.15-14.24,24.15-28.62,36.49-42.7q28.41-32.4,57.21-64.43c14.58-16.17,29.52-32,44.31-48,.68-.74,1.44-1.4,2.12-2.14,6.87-7.53,7.21-7.68,11.47,1.89,12.3,27.69,24.3,55.52,36.42,83.29,7.25,16.63,14.44,33.29,21.78,49.88,2.23,5,8.61,6.08,16.8,5.58,12.69-.77,25.45-.23,38.18-.19,10.23,0,20.46.14,30.68.18,6.42,0,12.87.35,19.24-.18,2.23-.18,5.39-2,6.25-4,16.08-36,31.83-72.25,47.74-108.38q25.2-57.21,50.54-114.35,4.47-10.12,8.95-20.24c.3-.69.66-1.34,1-2a5.79,5.79,0,0,1,.67,1.81c0,10.58-.11,21.16.08,31.74.16,8.77,1,17.54,1.06,26.31q.24,35.79,0,71.6c-.13,16.39-.88,32.78-1.06,49.17-.07,6.16.94,12.33,1,18.49a7.05,7.05,0,0,1-2.84,5.1q-70.12,44.57-140.4,88.86-65,41-130,81.85-69.81,43.93-139.62,87.84c-5.57,3.5-11.39,6.62-16.76,10.39-2.51,1.76-4,1.17-6.19-.2q-55.2-35.16-110.48-70.2Q402.62,1026,329,979.68q-65-41-130-81.85c-11.64-7.32-23.4-14.44-35-21.87-1.56-1-3.19-3.24-3.26-5-.64-15.78-.83-31.57-1.42-47.36-.17-4.5,1.28-3.92,4.09-2.12,16.79,10.73,33.7,21.28,50.38,32.17,4.24,2.77,7.54,3.11,11.94.25,14.37-9.32,29-18.18,43.53-27.34,3.66-2.31,5.32-1.32,7.17,2.43,17.05,34.42,34.3,68.75,51.49,103.1.72,1.43,1.56,2.8,2.18,4.28,2.19,5.25,4.88,6,9.78,2.44,9.21-6.7,19.42-6.28,28.72-.6,8.87,5.41,13.44,13.87,12.36,24.74-.44,4.36-.86,8.62,5.93,7.94,2.89-.29,5.9.86,8.85.86q84.54,0,169.08-.06c.05,12.24.36,24.48,0,36.7-.16,5.24,1.21,6.75,6.61,6.73,51.94-.22,103.88-.12,155.82-.13,14.76,0,14.42,0,14.89-14.58.2-6.14-2-7.13-7.47-7.1-47.13.21-94.25.13-141.38.14-1.41,0-3,.41-4.17-.1s-3.24-2.15-3.1-3a6.54,6.54,0,0,1,3-4.09c1.22-.7,3.13-.19,4.73-.19q66.48,0,133-.07c15.52,0,15.35,0,15.42-15.85,0-4.47-1.2-5.81-5.73-5.76-22.66.23-45.32.14-68,.15-25.87,0-51.74-.08-77.61.09-4.36,0-6.34-1.55-4.78-5.45.51-1.27,3.9-2,6-2q68-.18,136-.14c14,0,13.64,0,14.16-14,.22-6.07-1.38-7.67-7.53-7.64C686.94,935.69,639.21,935.53,591.48,935.49Zm-217.64,24.7c0-11.05-7.41-18.55-18.31-18.57-11.26,0-19.13,7.33-19.09,17.81,0,10.8,9.3,20.76,19.27,20.72S373.85,971.12,373.84,960.19Z" fill="#bfc0c0"/>
    <path d="M634.6,613.06c0,40.52.43,81.05-.14,121.56-.45,32.37-4.54,64.19-18.58,94-22.3,47.35-60,74.33-110.91,83-40.13,6.81-79.35,3-116.64-14.41-27.27-12.7-47.07-33.32-62-59.06-2.16-3.73.8-4.11,2.51-5.19q26.67-16.76,53.43-33.35c5.09-3.18,10.25-6.25,15.15-9.7,2.81-2,4.32-2.28,6.22,1.18,21.75,39.68,81.4,43,111.17,19.14,14.15-11.31,20.75-26.67,23.69-43.8a170.48,170.48,0,0,0,2.35-28.09c.21-61.19.06-122.37.27-183.56,0-5-1.68-5.79-6.1-5.75-26.28.24-52.56.1-78.84.38-5,.06-5.09-1.09-3.07-5.11,12.55-24.94,24.82-50,37.48-74.91.81-1.6,4-2.81,6.08-2.82q61.38-.32,122.77-.23c4.94,0,11.38-1.35,14.35,1.18,2.43,2.06.85,9,.85,13.76q0,65.9,0,131.8Z" fill="#091137"/>
    <path d="M704,466.32c14.44,0,28.89.07,43.33-.05,2.9,0,4.45.54,5.7,3.66q46.68,116.31,93.64,232.53c19.1,47.56,37.86,95.25,56.73,142.9.54,1.37,1.07,3.22.59,4.44-2.67,6.67-5.53,13.27-8.65,19.74a5.28,5.28,0,0,1-4,2.3c-21.66.15-43.33.21-65-.08-1.69,0-4.13-2.47-4.91-4.33q-23-55.18-45.67-110.52Q717.43,615.09,659.14,473.25a23.89,23.89,0,0,0-.92-2.21c-2-3.5-1.61-4.92,3-4.82C675.49,466.5,689.74,466.32,704,466.32Z" fill="#091137"/>
    <path d="M1015.28,467c13.63,0,27.27.2,40.9-.11,4.83-.11,5.18,1,3.42,5.16q-41.11,96.94-82,194-29.13,69.19-58,138.52a34.25,34.25,0,0,1-2.34,4.05c-.64-1.4-1.33-2.77-1.9-4.19-13.9-34.15-27.84-68.27-41.54-102.49a11.23,11.23,0,0,1,.39-7.69q38.12-91.32,76.5-182.53c5.7-13.6,11.43-27.2,16.84-40.92,1.29-3.26,3-3.95,6.22-3.91,13.83.19,27.67.08,41.51.08Z" fill="#091136"/>
    <path d="M515.94,394.12a18.34,18.34,0,0,0-4.31-1.06c-25.07,0-50.15.08-75.22,0-3.46,0-5.19.73-6.29,4.47-4,13.59-17.05,22-31.43,20.76-12.56-1.05-24.1-12.06-26-24.75-2.05-14,5.34-27.51,18.69-32.11,5.6-1.93,6.44-4.74,6.38-9.89-.3-23.67-.32-47.34-.24-71,.06-17.76,9.82-27.42,27.66-27.48q49.95-.13,99.9,0c4.61,0,6.38-1,6.14-5.93-.41-8.4.12-16.85-.17-25.26-.14-4.25.7-5.87,5.5-5.86q90,.26,179.93,0c4.46,0,5.45,1.51,5.11,5.5a57.35,57.35,0,0,0,0,11.42c.56,4.95-1.45,5.87-6,5.86-52-.09-103.91,0-155.86.09-3,0-6.06-.66-5.68,4.32.23,3.17,1.13,4.07,4.22,4,9-.17,18,0,27.08,0,43.32,0,86.65,0,130-.23,4.89,0,6.46,1,6.34,6.17-.34,15.44-.1,15.5-15.73,15.51q-72.81,0-145.62.11c-2.07,0-5.57-1.92-5.94,2.67-.3,3.68.09,5.92,4.9,5.79,13.63-.34,27.28-.16,40.92-.17,38.31,0,76.62.09,114.93-.09,4.74,0,7,.75,6.44,6.09-.58,5.12,1.51,12.21-1.16,15s-9.74,1.19-14.88,1.19c-56.17.08-112.33,0-168.5.22-4.85,0-6-1.36-5.85-6,.35-9.41,0-18.85.11-28.28.06-3.4-1.09-4.48-4.49-4.47-34.3.15-68.61,0-102.91.28C412.53,261,406,267.76,406,279.1c-.12,25.27.13,50.55,0,75.82,0,3.24,1.16,4.42,4.05,5.37,10.63,3.49,18.08,10.28,20.36,21.59.74,3.67,2.93,3.58,5.67,3.58q41.82,0,83.64,0c1.72,0,3.44.12,5.16.19-.94,1.46-1.92,2.9-2.81,4.4a26.64,26.64,0,0,0-1.2,2.6ZM401.91,410a21.16,21.16,0,0,0,.39-42.31c-11.59-.1-21.36,9.68-21.42,21.44S390,409.91,401.91,410Z" fill="#bfbfc1"/>
    <path d="M591.48,935.49c47.73,0,95.46.2,143.19,0,6.15,0,7.75,1.57,7.53,7.64-.52,14-.19,14-14.16,14q-68,0-136,.14c-2.08,0-5.47.69-6,2-1.56,3.9.42,5.48,4.78,5.45,25.87-.17,51.74-.08,77.61-.09,22.66,0,45.32.08,68-.15,4.53-.05,5.75,1.29,5.73,5.76-.07,15.81.1,15.84-15.42,15.85q-66.48.06-133,.07c-1.6,0-3.51-.51-4.73.19a6.54,6.54,0,0,0-3,4.09c-.14.83,1.81,2.42,3.1,3s2.76.1,4.17.1c47.13,0,94.25.07,141.38-.14,5.51,0,7.67,1,7.47,7.1-.47,14.55-.13,14.58-14.89,14.58-51.94,0-103.88-.09-155.82.13-5.4,0-6.77-1.49-6.61-6.73.35-12.22,0-24.46,0-36.7.22-10.56.56-21.12.57-31.68,0-3.4,1.08-4.46,4.46-4.39C577.12,935.82,584.3,935.57,591.48,935.49Z" fill="#666767"/>
    <path d="M401.91,410c-11.91-.07-21.09-9.19-21-20.87s9.83-21.54,21.42-21.44a21.16,21.16,0,0,1-.39,42.31Z" fill="#081139"/>
    <path d="M340.28,636.5c.28-4.09-1.11-5.85-4.66-7.61-15-7.47-17.56-26.89-5-37.4,6.91-5.8,14.76-7.12,23-3.5s13.19,10.42,13.51,19.65c.33,9.48-4.09,17-12.51,20.92-4.82,2.25-5.62,5.07-5.74,9.58q-.56,20.15-1.73,40.25c-.27,4.43.35,6.84,5.21,8.77,12.3,4.89,18.77,17,17.64,30.56-.94,11.33-9.69,21.3-21.62,24.64-15.31,4.3-32-5.93-34.82-21.93-.86-4.8-2.78-6.1-7.34-6.22-8.6-.23-17.2-.94-25.77-1.81-3.81-.38-5.41.76-6.92,4.42a28.45,28.45,0,0,1-52.81-21.15c4.3-11,14.64-17.67,26.93-17.4,11.89.26,22.74,7.54,25.9,18.82,1.63,5.8,4.37,7.3,9.87,7.38,8.8.13,17.59,1.22,26.4,1.52,1.55,0,4.08-1.45,4.6-2.83,3.66-9.66,10.49-15.56,20.45-17.5,3.56-.7,3.94-2.38,3.89-5.3C338.64,672.74,339.81,643.47,340.28,636.5Zm19.35,78.34c.11-10.85-8-19.48-18.44-19.64-10-.15-19,9-19,19.32,0,9.78,8.44,18.23,18.43,18.52A18.29,18.29,0,0,0,359.63,714.84Z" fill="#081035"/>
    <path d="M129.26,684.43c-1.5-16.21,13.37-31.12,31-31.3C176.85,653,190.62,667.4,190.8,684c.16,14.09-10.24,31.22-31.35,31C141.51,714.84,128.32,700.84,129.26,684.43Z" fill="#bebfbf"/>
  </g>
</svg>
